<svg viewBox="0 0 600 400" xmlns="http://www.w3.org/2000/svg">
<g transform="translate(72, 364)">
<g>
<g>
<path d="M0,0 L0,0 L34.285713,-7.0833335 L68.57143,-21.25 L102.85714,-60.208332 L137.14285,-31.875 L171.42857,-49.583332 L205.71428,-67.291664 L240,-70.833336 L274.2857,-170 L308.57144,-134.58333 L342.85715,-187.70833 L377.14285,-255 L411.42856,-201.875 L445.7143,-255 L480,-340" fill="none" stroke="#000000" stroke-linejoin="round" stroke-width="2"/>
</g>
<g>
<circle cx="0" cy="0" fill="#000000" r="5"/>
<circle cx="34.285714285714285" cy="-7.083333333333333" fill="#000000" r="5"/>
<circle cx="68.57142857142857" cy="-21.25" fill="#000000" r="5"/>
<circle cx="102.85714285714286" cy="-60.208333333333336" fill="#000000" r="5"/>
<circle cx="137.14285714285714" cy="-31.875" fill="#000000" r="5"/>
<circle cx="171.42857142857142" cy="-49.583333333333336" fill="#000000" r="5"/>
<circle cx="205.71428571428572" cy="-67.29166666666667" fill="#000000" r="5"/>
<circle cx="240" cy="-70.83333333333333" fill="#000000" r="5"/>
<circle cx="274.2857142857143" cy="-170" fill="#000000" r="5"/>
<circle cx="308.57142857142856" cy="-134.58333333333334" fill="#000000" r="5"/>
<circle cx="342.85714285714283" cy="-187.70833333333334" fill="#000000" r="5"/>
<circle cx="377.14285714285717" cy="-255" fill="#000000" r="5"/>
<circle cx="411.42857142857144" cy="-201.875" fill="#000000" r="5"/>
<circle cx="445.7142857142857" cy="-255" fill="#000000" r="5"/>
<circle cx="480" cy="-340" fill="#000000" r="5"/>
</g>
</g>
<g>
<g>
<line stroke="black" stroke-width="1" x1="0" x2="0" y1="0" y2="10"/>
<line stroke="black" stroke-width="1" x1="137.14285714285714" x2="137.14285714285714" y1="0" y2="10"/>
<line stroke="black" stroke-width="1" x1="274.2857142857143" x2="274.2857142857143" y1="0" y2="10"/>
<line stroke="black" stroke-width="1" x1="411.42857142857144" x2="411.42857142857144" y1="0" y2="10"/>
</g>
<line stroke="black" stroke-width="1" x1="0" x2="480" y1="0" y2="0"/>
<g>
<text font-size="12" text-anchor="middle" x="0" y="20">
1
</text>
<text font-size="12" text-anchor="middle" x="137.14285714285714" y="20">
5
</text>
<text font-size="12" text-anchor="middle" x="274.2857142857143" y="20">
9
</text>
<text font-size="12" text-anchor="middle" x="411.42857142857144" y="20">
13
</text>
</g>
<text font-size="12" text-anchor="middle" x="240" y="30">

</text>
</g>
<g>
<g>
<line stroke="black" stroke-width="1" x1="0" x2="-10" y1="0" y2="0"/>
<line stroke="black" stroke-width="1" x1="0" x2="-10" y1="-70.83333333333333" y2="-70.83333333333333"/>
<line stroke="black" stroke-width="1" x1="0" x2="-10" y1="-141.66666666666666" y2="-141.66666666666666"/>
<line stroke="black" stroke-width="1" x1="0" x2="-10" y1="-212.5" y2="-212.5"/>
<line stroke="black" stroke-width="1" x1="0" x2="-10" y1="-283.3333333333333" y2="-283.3333333333333"/>
</g>
<line stroke="black" stroke-width="1" x1="0" x2="0" y1="0" y2="-340"/>
<g>
<text dominant-baseline="middle" font-size="12" text-anchor="end" x="-15" y="0">
3
</text>
<text dominant-baseline="middle" font-size="12" text-anchor="end" x="-15" y="-70.83333333333333">
23
</text>
<text dominant-baseline="middle" font-size="12" text-anchor="end" x="-15" y="-141.66666666666666">
43
</text>
<text dominant-baseline="middle" font-size="12" text-anchor="end" x="-15" y="-212.5">
63
</text>
<text dominant-baseline="middle" font-size="12" text-anchor="end" x="-15" y="-283.3333333333333">
83
</text>
</g>
<text font-size="12" text-anchor="middle" transform="rotate(-90 -24 -170)" x="-24" y="-182">

</text>
</g>
</g>
</svg>