<svg viewBox="0 0 600 400" xmlns="http://www.w3.org/2000/svg">
<g transform="translate(72, 364)">
<g>
<g>
<path d="M0,0 L0,0 L13.714286,-9.714286 L27.428572,-19.428572 L41.142857,-29.142857 L54.857143,-38.857143 L68.57143,-48.57143 L82.28571,-58.285713 L96,-68 L109.71429,-77.71429 L123.42857,-87.42857 L137.14285,-97.14286 L150.85715,-106.85714 L164.57143,-87.42857 L178.28572,-126.28571 L192,-136 L205.71428,-145.71428 L219.42857,-155.42857 L233.14285,-165.14285 L246.85715,-174.85715 L260.57144,-184.57143 L274.2857,-194.28572 L288,-204 L301.7143,-213.71428 L315.42856,-223.42857 L329.14285,-233.14285 L342.85715,-242.85715 L356.57144,-252.57143 L370.2857,-262.2857 L384,-272 L397.7143,-281.7143 L411.42856,-291.42856 L425.14285,-301.14285 L438.85715,-310.85715 L452.57144,-320.57144 L466.2857,-330.2857 L480,-340" fill="none" stroke="#000000" stroke-linejoin="round" stroke-width="2"/>
</g>
<g>
<circle cx="0" cy="0" fill="#000000" r="5"/>
<circle cx="13.714285714285714" cy="-9.714285714285714" fill="#000000" r="5"/>
<circle cx="27.428571428571427" cy="-19.428571428571427" fill="#000000" r="5"/>
<circle cx="41.142857142857146" cy="-29.142857142857142" fill="#000000" r="5"/>
<circle cx="54.857142857142854" cy="-38.857142857142854" fill="#000000" r="5"/>
<circle cx="68.57142857142857" cy="-48.57142857142857" fill="#000000" r="5"/>
<circle cx="82.28571428571429" cy="-58.285714285714285" fill="#000000" r="5"/>
<circle cx="96" cy="-68" fill="#000000" r="5"/>
<circle cx="109.71428571428571" cy="-77.71428571428571" fill="#000000" r="5"/>
<circle cx="123.42857142857143" cy="-87.42857142857143" fill="#000000" r="5"/>
<circle cx="137.14285714285714" cy="-97.14285714285714" fill="#000000" r="5"/>
<circle cx="150.85714285714286" cy="-106.85714285714286" fill="#000000" r="5"/>
<circle cx="164.57142857142858" cy="-87.42857142857143" fill="#000000" r="5"/>
<circle cx="178.28571428571428" cy="-126.28571428571429" fill="#000000" r="5"/>
<circle cx="192" cy="-136" fill="#000000" r="5"/>
<circle cx="205.71428571428572" cy="-145.71428571428572" fill="#000000" r="5"/>
<circle cx="219.42857142857142" cy="-155.42857142857142" fill="#000000" r="5"/>
<circle cx="233.14285714285714" cy="-165.14285714285714" fill="#000000" r="5"/>
<circle cx="246.85714285714286" cy="-174.85714285714286" fill="#000000" r="5"/>
<circle cx="260.57142857142856" cy="-184.57142857142858" fill="#000000" r="5"/>
<circle cx="274.2857142857143" cy="-194.28571428571428" fill="#000000" r="5"/>
<circle cx="288" cy="-204" fill="#000000" r="5"/>
<circle cx="301.7142857142857" cy="-213.71428571428572" fill="#000000" r="5"/>
<circle cx="315.42857142857144" cy="-223.42857142857142" fill="#000000" r="5"/>
<circle cx="329.14285714285717" cy="-233.14285714285714" fill="#000000" r="5"/>
<circle cx="342.85714285714283" cy="-242.85714285714286" fill="#000000" r="5"/>
<circle cx="356.57142857142856" cy="-252.57142857142858" fill="#000000" r="5"/>
<circle cx="370.2857142857143" cy="-262.2857142857143" fill="#000000" r="5"/>
<circle cx="384" cy="-272" fill="#000000" r="5"/>
<circle cx="397.7142857142857" cy="-281.7142857142857" fill="#000000" r="5"/>
<circle cx="411.42857142857144" cy="-291.42857142857144" fill="#000000" r="5"/>
<circle cx="425.14285714285717" cy="-301.14285714285717" fill="#000000" r="5"/>
<circle cx="438.85714285714283" cy="-310.85714285714283" fill="#000000" r="5"/>
<circle cx="452.57142857142856" cy="-320.57142857142856" fill="#000000" r="5"/>
<circle cx="466.2857142857143" cy="-330.2857142857143" fill="#000000" r="5"/>
<circle cx="480" cy="-340" fill="#000000" r="5"/>
</g>
</g>
<g>
<g>
<line stroke="black" stroke-width="1" x1="0" x2="0" y1="0" y2="10"/>
<line stroke="black" stroke-width="1" x1="137.14285714285714" x2="137.14285714285714" y1="0" y2="10"/>
<line stroke="black" stroke-width="1" x1="274.2857142857143" x2="274.2857142857143" y1="0" y2="10"/>
<line stroke="black" stroke-width="1" x1="411.42857142857144" x2="411.42857142857144" y1="0" y2="10"/>
</g>
<line stroke="black" stroke-width="1" x1="0" x2="480" y1="0" y2="0"/>
<g>
<text font-size="12" text-anchor="middle" x="0" y="20">
1
</text>
<text font-size="12" text-anchor="middle" x="137.14285714285714" y="20">
11
</text>
<text font-size="12" text-anchor="middle" x="274.2857142857143" y="20">
21
</text>
<text font-size="12" text-anchor="middle" x="411.42857142857144" y="20">
31
</text>
</g>
<text font-size="12" text-anchor="middle" x="240" y="30">

</text>
</g>
<g>
<g>
<line stroke="black" stroke-width="1" x1="0" x2="-10" y1="0" y2="0"/>
<line stroke="black" stroke-width="1" x1="0" x2="-10" y1="-97.14285714285714" y2="-97.14285714285714"/>
<line stroke="black" stroke-width="1" x1="0" x2="-10" y1="-194.28571428571428" y2="-194.28571428571428"/>
<line stroke="black" stroke-width="1" x1="0" x2="-10" y1="-291.42857142857144" y2="-291.42857142857144"/>
</g>
<line stroke="black" stroke-width="1" x1="0" x2="0" y1="0" y2="-340"/>
<g>
<text dominant-baseline="middle" font-size="12" text-anchor="end" x="-15" y="0">
10
</text>
<text dominant-baseline="middle" font-size="12" text-anchor="end" x="-15" y="-97.14285714285714">
110
</text>
<text dominant-baseline="middle" font-size="12" text-anchor="end" x="-15" y="-194.28571428571428">
210
</text>
<text dominant-baseline="middle" font-size="12" text-anchor="end" x="-15" y="-291.42857142857144">
310
</text>
</g>
<text font-size="12" text-anchor="middle" transform="rotate(-90 -36 -170)" x="-36" y="-182">

</text>
</g>
</g>
</svg>