<svg viewBox="0 0 600 400" xmlns="http://www.w3.org/2000/svg">
<g transform="translate(72, 364)">
<g>
<g>
<path d="M0,-194.28572 L0,-194.28572 L20.869566,-145.71428 L41.739132,-97.14286 L62.608696,-48.57143 L83.478264,0 L104.347824,-48.57143 L125.21739,-48.57143 L146.08696,-145.71428 L166.95653,-97.14286 L187.82608,0 L208.69565,-194.28572 L229.56522,-291.42856 L250.43478,-340 L271.30435,-194.28572 L292.17392,-242.85715 L313.0435,-121.42857 L333.91306,-145.71428 L354.78262,-97.14286 L375.65216,-194.28572 L396.52173,-48.57143 L417.3913,-97.14286 L438.26086,-291.42856 L459.13043,-97.14286 L480,-194.28572" fill="none" stroke="#000000" stroke-linejoin="round" stroke-width="2"/>
</g>
<g>
<circle cx="0" cy="-194.28571428571428" fill="#000000" r="5"/>
<circle cx="20.869565217391305" cy="-145.71428571428572" fill="#000000" r="5"/>
<circle cx="41.73913043478261" cy="-97.14285714285714" fill="#000000" r="5"/>
<circle cx="62.608695652173914" cy="-48.57142857142857" fill="#000000" r="5"/>
<circle cx="83.47826086956522" cy="0" fill="#000000" r="5"/>
<circle cx="104.34782608695652" cy="-48.57142857142857" fill="#000000" r="5"/>
<circle cx="125.21739130434783" cy="-48.57142857142857" fill="#000000" r="5"/>
<circle cx="146.08695652173913" cy="-145.71428571428572" fill="#000000" r="5"/>
<circle cx="166.95652173913044" cy="-97.14285714285714" fill="#000000" r="5"/>
<circle cx="187.82608695652175" cy="0" fill="#000000" r="5"/>
<circle cx="208.69565217391303" cy="-194.28571428571428" fill="#000000" r="5"/>
<circle cx="229.56521739130434" cy="-291.42857142857144" fill="#000000" r="5"/>
<circle cx="250.43478260869566" cy="-340" fill="#000000" r="5"/>
<circle cx="271.30434782608694" cy="-194.28571428571428" fill="#000000" r="5"/>
<circle cx="292.17391304347825" cy="-242.85714285714286" fill="#000000" r="5"/>
<circle cx="313.04347826086956" cy="-121.42857142857143" fill="#000000" r="5"/>
<circle cx="333.9130434782609" cy="-145.71428571428572" fill="#000000" r="5"/>
<circle cx="354.7826086956522" cy="-97.14285714285714" fill="#000000" r="5"/>
<circle cx="375.6521739130435" cy="-194.28571428571428" fill="#000000" r="5"/>
<circle cx="396.5217391304348" cy="-48.57142857142857" fill="#000000" r="5"/>
<circle cx="417.39130434782606" cy="-97.14285714285714" fill="#000000" r="5"/>
<circle cx="438.2608695652174" cy="-291.42857142857144" fill="#000000" r="5"/>
<circle cx="459.1304347826087" cy="-97.14285714285714" fill="#000000" r="5"/>
<circle cx="480" cy="-194.28571428571428" fill="#000000" r="5"/>
</g>
</g>
<g>
<g>
<line stroke="black" stroke-width="1" x1="0" x2="0" y1="0" y2="10"/>
<line stroke="black" stroke-width="1" x1="83.47826086956522" x2="83.47826086956522" y1="0" y2="10"/>
<line stroke="black" stroke-width="1" x1="166.95652173913044" x2="166.95652173913044" y1="0" y2="10"/>
<line stroke="black" stroke-width="1" x1="250.43478260869566" x2="250.43478260869566" y1="0" y2="10"/>
<line stroke="black" stroke-width="1" x1="333.9130434782609" x2="333.9130434782609" y1="0" y2="10"/>
<line stroke="black" stroke-width="1" x1="417.39130434782606" x2="417.39130434782606" y1="0" y2="10"/>
</g>
<line stroke="black" stroke-width="1" x1="0" x2="480" y1="0" y2="0"/>
<g>
<text font-size="12" text-anchor="middle" x="0" y="20">
1
</text>
<text font-size="12" text-anchor="middle" x="83.47826086956522" y="20">
5
</text>
<text font-size="12" text-anchor="middle" x="166.95652173913044" y="20">
9
</text>
<text font-size="12" text-anchor="middle" x="250.43478260869566" y="20">
13
</text>
<text font-size="12" text-anchor="middle" x="333.9130434782609" y="20">
17
</text>
<text font-size="12" text-anchor="middle" x="417.39130434782606" y="20">
21
</text>
</g>
<text font-size="12" text-anchor="middle" x="240" y="30">

</text>
</g>
<g>
<g>
<line stroke="black" stroke-width="1" x1="0" x2="-10" y1="0" y2="0"/>
<line stroke="black" stroke-width="1" x1="0" x2="-10" y1="-97.14285714285714" y2="-97.14285714285714"/>
<line stroke="black" stroke-width="1" x1="0" x2="-10" y1="-194.28571428571428" y2="-194.28571428571428"/>
<line stroke="black" stroke-width="1" x1="0" x2="-10" y1="-291.42857142857144" y2="-291.42857142857144"/>
</g>
<line stroke="black" stroke-width="1" x1="0" x2="0" y1="0" y2="-340"/>
<g>
<text dominant-baseline="middle" font-size="12" text-anchor="end" x="-15" y="0">
60
</text>
<text dominant-baseline="middle" font-size="12" text-anchor="end" x="-15" y="-97.14285714285714">
80
</text>
<text dominant-baseline="middle" font-size="12" text-anchor="end" x="-15" y="-194.28571428571428">
100
</text>
<text dominant-baseline="middle" font-size="12" text-anchor="end" x="-15" y="-291.42857142857144">
120
</text>
</g>
<text font-size="12" text-anchor="middle" transform="rotate(-90 -36 -170)" x="-36" y="-182">

</text>
</g>
</g>
</svg>