<svg viewBox="0 0 600 400" xmlns="http://www.w3.org/2000/svg">
<g transform="translate(72, 364)">
<g>
<g>
<path d="M0,-212.5 L0,-212.5 L13.714286,-170 L27.428572,-127.5 L41.142857,-85 L54.857143,-42.5 L68.57143,-127.5 L82.28571,-85 L96,-212.5 L109.71429,-340 L123.42857,-255 L137.14285,-297.5 L150.85715,-297.5 L164.57143,-170 L178.28572,-127.5 L192,-212.5 L205.71428,-127.5 L219.42857,-85 L233.14285,-42.5 L246.85715,0 L260.57144,-127.5 L274.2857,-170 L288,-212.5 L301.7143,-297.5 L315.42856,-255 L329.14285,-127.5 L342.85715,-170 L356.57144,-212.5 L370.2857,-255 L384,-297.5 L397.7143,-212.5 L411.42856,-297.5 L425.14285,-212.5 L438.85715,-212.5 L452.57144,-255 L466.2857,-297.5 L480,-340" fill="none" stroke="#000000" stroke-linejoin="round" stroke-width="2"/>
</g>
<g>
<circle cx="0" cy="-212.5" fill="#000000" r="5"/>
<circle cx="13.714285714285714" cy="-170" fill="#000000" r="5"/>
<circle cx="27.428571428571427" cy="-127.5" fill="#000000" r="5"/>
<circle cx="41.142857142857146" cy="-85" fill="#000000" r="5"/>
<circle cx="54.857142857142854" cy="-42.5" fill="#000000" r="5"/>
<circle cx="68.57142857142857" cy="-127.5" fill="#000000" r="5"/>
<circle cx="82.28571428571429" cy="-85" fill="#000000" r="5"/>
<circle cx="96" cy="-212.5" fill="#000000" r="5"/>
<circle cx="109.71428571428571" cy="-340" fill="#000000" r="5"/>
<circle cx="123.42857142857143" cy="-255" fill="#000000" r="5"/>
<circle cx="137.14285714285714" cy="-297.5" fill="#000000" r="5"/>
<circle cx="150.85714285714286" cy="-297.5" fill="#000000" r="5"/>
<circle cx="164.57142857142858" cy="-170" fill="#000000" r="5"/>
<circle cx="178.28571428571428" cy="-127.5" fill="#000000" r="5"/>
<circle cx="192" cy="-212.5" fill="#000000" r="5"/>
<circle cx="205.71428571428572" cy="-127.5" fill="#000000" r="5"/>
<circle cx="219.42857142857142" cy="-85" fill="#000000" r="5"/>
<circle cx="233.14285714285714" cy="-42.5" fill="#000000" r="5"/>
<circle cx="246.85714285714286" cy="0" fill="#000000" r="5"/>
<circle cx="260.57142857142856" cy="-127.5" fill="#000000" r="5"/>
<circle cx="274.2857142857143" cy="-170" fill="#000000" r="5"/>
<circle cx="288" cy="-212.5" fill="#000000" r="5"/>
<circle cx="301.7142857142857" cy="-297.5" fill="#000000" r="5"/>
<circle cx="315.42857142857144" cy="-255" fill="#000000" r="5"/>
<circle cx="329.14285714285717" cy="-127.5" fill="#000000" r="5"/>
<circle cx="342.85714285714283" cy="-170" fill="#000000" r="5"/>
<circle cx="356.57142857142856" cy="-212.5" fill="#000000" r="5"/>
<circle cx="370.2857142857143" cy="-255" fill="#000000" r="5"/>
<circle cx="384" cy="-297.5" fill="#000000" r="5"/>
<circle cx="397.7142857142857" cy="-212.5" fill="#000000" r="5"/>
<circle cx="411.42857142857144" cy="-297.5" fill="#000000" r="5"/>
<circle cx="425.14285714285717" cy="-212.5" fill="#000000" r="5"/>
<circle cx="438.85714285714283" cy="-212.5" fill="#000000" r="5"/>
<circle cx="452.57142857142856" cy="-255" fill="#000000" r="5"/>
<circle cx="466.2857142857143" cy="-297.5" fill="#000000" r="5"/>
<circle cx="480" cy="-340" fill="#000000" r="5"/>
</g>
</g>
<g>
<g>
<path d="M0,-134.64714 L0,-134.64714 L13.714286,-138.01651 L27.428572,-141.38588 L41.142857,-144.75525 L54.857143,-148.12462 L68.57143,-151.49399 L82.28571,-154.86336 L96,-158.23273 L109.71429,-161.6021 L123.42857,-164.97147 L137.14285,-168.34084 L150.85715,-171.7102 L164.57143,-175.07957 L178.28572,-178.44894 L192,-181.81831 L205.71428,-185.18768 L219.42857,-188.55705 L233.14285,-191.92642 L246.85715,-195.29579 L260.57144,-198.66516 L274.2857,-202.03453 L288,-205.4039 L301.7143,-208.77327 L315.42856,-212.14264 L329.14285,-215.51201 L342.85715,-218.88138 L356.57144,-222.25075 L370.2857,-225.62012 L384,-228.98949 L397.7143,-232.35886 L411.42856,-235.72823 L425.14285,-239.0976 L438.85715,-242.46696 L452.57144,-245.83633 L466.2857,-249.2057 L480,-252.57507" fill="none" stroke="#ff00aa" stroke-linejoin="round" stroke-width="2"/>
</g>
<g>
<circle cx="0" cy="-134.64714714714714" fill="#ff00aa" r="5"/>
<circle cx="13.714285714285714" cy="-138.01651651651653" fill="#ff00aa" r="5"/>
<circle cx="27.428571428571427" cy="-141.38588588588584" fill="#ff00aa" r="5"/>
<circle cx="41.142857142857146" cy="-144.75525525525524" fill="#ff00aa" r="5"/>
<circle cx="54.857142857142854" cy="-148.1246246246246" fill="#ff00aa" r="5"/>
<circle cx="68.57142857142857" cy="-151.493993993994" fill="#ff00aa" r="5"/>
<circle cx="82.28571428571429" cy="-154.86336336336336" fill="#ff00aa" r="5"/>
<circle cx="96" cy="-158.23273273273276" fill="#ff00aa" r="5"/>
<circle cx="109.71428571428571" cy="-161.60210210210207" fill="#ff00aa" r="5"/>
<circle cx="123.42857142857143" cy="-164.97147147147146" fill="#ff00aa" r="5"/>
<circle cx="137.14285714285714" cy="-168.34084084084083" fill="#ff00aa" r="5"/>
<circle cx="150.85714285714286" cy="-171.7102102102102" fill="#ff00aa" r="5"/>
<circle cx="164.57142857142858" cy="-175.0795795795796" fill="#ff00aa" r="5"/>
<circle cx="178.28571428571428" cy="-178.44894894894895" fill="#ff00aa" r="5"/>
<circle cx="192" cy="-181.8183183183183" fill="#ff00aa" r="5"/>
<circle cx="205.71428571428572" cy="-185.18768768768766" fill="#ff00aa" r="5"/>
<circle cx="219.42857142857142" cy="-188.55705705705705" fill="#ff00aa" r="5"/>
<circle cx="233.14285714285714" cy="-191.92642642642642" fill="#ff00aa" r="5"/>
<circle cx="246.85714285714286" cy="-195.2957957957958" fill="#ff00aa" r="5"/>
<circle cx="260.57142857142856" cy="-198.66516516516512" fill="#ff00aa" r="5"/>
<circle cx="274.2857142857143" cy="-202.03453453453452" fill="#ff00aa" r="5"/>
<circle cx="288" cy="-205.40390390390388" fill="#ff00aa" r="5"/>
<circle cx="301.7142857142857" cy="-208.77327327327325" fill="#ff00aa" r="5"/>
<circle cx="315.42857142857144" cy="-212.14264264264267" fill="#ff00aa" r="5"/>
<circle cx="329.14285714285717" cy="-215.512012012012" fill="#ff00aa" r="5"/>
<circle cx="342.85714285714283" cy="-218.88138138138135" fill="#ff00aa" r="5"/>
<circle cx="356.57142857142856" cy="-222.25075075075074" fill="#ff00aa" r="5"/>
<circle cx="370.2857142857143" cy="-225.6201201201201" fill="#ff00aa" r="5"/>
<circle cx="384" cy="-228.9894894894895" fill="#ff00aa" r="5"/>
<circle cx="397.7142857142857" cy="-232.3588588588588" fill="#ff00aa" r="5"/>
<circle cx="411.42857142857144" cy="-235.72822822822818" fill="#ff00aa" r="5"/>
<circle cx="425.14285714285717" cy="-239.0975975975976" fill="#ff00aa" r="5"/>
<circle cx="438.85714285714283" cy="-242.46696696696694" fill="#ff00aa" r="5"/>
<circle cx="452.57142857142856" cy="-245.83633633633636" fill="#ff00aa" r="5"/>
<circle cx="466.2857142857143" cy="-249.20570570570572" fill="#ff00aa" r="5"/>
<circle cx="480" cy="-252.57507507507506" fill="#ff00aa" r="5"/>
</g>
</g>
<g>
<g>
<path d="M13.714286,-212.5 L13.714286,-212.5 L27.428572,-195.5 L41.142857,-168.3 L54.857143,-134.98 L68.57143,-97.988 L82.28571,-109.7928 L96,-99.87568 L109.71429,-144.92542 L123.42857,-222.95525 L137.14285,-235.77315 L150.85715,-260.4639 L164.57143,-275.27832 L178.28572,-233.16699 L192,-190.90019 L205.71428,-199.54012 L219.42857,-170.72408 L233.14285,-136.43445 L246.85715,-98.860664 L260.57144,-59.3164 L274.2857,-86.589836 L288,-119.9539 L301.7143,-156.97234 L315.42856,-213.18341 L329.14285,-229.91005 L342.85715,-188.94603 L356.57144,-181.36761 L370.2857,-193.82057 L384,-218.29234 L397.7143,-249.9754 L411.42856,-234.98524 L425.14285,-259.99115 L438.85715,-240.99469 L452.57144,-229.59682 L466.2857,-239.75809 L480,-262.85486" fill="none" stroke="#a0fa33" stroke-linejoin="round" stroke-width="2"/>
</g>
<g>
<circle cx="13.714285714285714" cy="-212.5" fill="#a0fa33" r="5"/>
<circle cx="27.428571428571427" cy="-195.5" fill="#a0fa33" r="5"/>
<circle cx="41.142857142857146" cy="-168.29999999999998" fill="#a0fa33" r="5"/>
<circle cx="54.857142857142854" cy="-134.97999999999996" fill="#a0fa33" r="5"/>
<circle cx="68.57142857142857" cy="-97.98799999999993" fill="#a0fa33" r="5"/>
<circle cx="82.28571428571429" cy="-109.79279999999997" fill="#a0fa33" r="5"/>
<circle cx="96" cy="-99.87567999999997" fill="#a0fa33" r="5"/>
<circle cx="109.71428571428571" cy="-144.92540799999998" fill="#a0fa33" r="5"/>
<circle cx="123.42857142857143" cy="-222.9552448" fill="#a0fa33" r="5"/>
<circle cx="137.14285714285714" cy="-235.77314687999996" fill="#a0fa33" r="5"/>
<circle cx="150.85714285714286" cy="-260.463888128" fill="#a0fa33" r="5"/>
<circle cx="164.57142857142858" cy="-275.27833287679994" fill="#a0fa33" r="5"/>
<circle cx="178.28571428571428" cy="-233.16699972607995" fill="#a0fa33" r="5"/>
<circle cx="192" cy="-190.90019983564792" fill="#a0fa33" r="5"/>
<circle cx="205.71428571428572" cy="-199.54011990138875" fill="#a0fa33" r="5"/>
<circle cx="219.42857142857142" cy="-170.72407194083323" fill="#a0fa33" r="5"/>
<circle cx="233.14285714285714" cy="-136.4344431644999" fill="#a0fa33" r="5"/>
<circle cx="246.85714285714286" cy="-98.86066589869992" fill="#a0fa33" r="5"/>
<circle cx="260.57142857142856" cy="-59.316399539219944" fill="#a0fa33" r="5"/>
<circle cx="274.2857142857143" cy="-86.58983972353197" fill="#a0fa33" r="5"/>
<circle cx="288" cy="-119.95390383411916" fill="#a0fa33" r="5"/>
<circle cx="301.7142857142857" cy="-156.97234230047152" fill="#a0fa33" r="5"/>
<circle cx="315.42857142857144" cy="-213.18340538028292" fill="#a0fa33" r="5"/>
<circle cx="329.14285714285717" cy="-229.9100432281697" fill="#a0fa33" r="5"/>
<circle cx="342.85714285714283" cy="-188.94602593690178" fill="#a0fa33" r="5"/>
<circle cx="356.57142857142856" cy="-181.36761556214105" fill="#a0fa33" r="5"/>
<circle cx="370.2857142857143" cy="-193.82056933728464" fill="#a0fa33" r="5"/>
<circle cx="384" cy="-218.29234160237078" fill="#a0fa33" r="5"/>
<circle cx="397.7142857142857" cy="-249.9754049614224" fill="#a0fa33" r="5"/>
<circle cx="411.42857142857144" cy="-234.98524297685344" fill="#a0fa33" r="5"/>
<circle cx="425.14285714285717" cy="-259.99114578611204" fill="#a0fa33" r="5"/>
<circle cx="438.85714285714283" cy="-240.9946874716672" fill="#a0fa33" r="5"/>
<circle cx="452.57142857142856" cy="-229.5968124830003" fill="#a0fa33" r="5"/>
<circle cx="466.2857142857143" cy="-239.75808748980018" fill="#a0fa33" r="5"/>
<circle cx="480" cy="-262.85485249388006" fill="#a0fa33" r="5"/>
</g>
</g>
<g>
<g>
<line stroke="black" stroke-width="1" x1="0" x2="0" y1="0" y2="10"/>
<line stroke="black" stroke-width="1" x1="137.14285714285714" x2="137.14285714285714" y1="0" y2="10"/>
<line stroke="black" stroke-width="1" x1="274.2857142857143" x2="274.2857142857143" y1="0" y2="10"/>
<line stroke="black" stroke-width="1" x1="411.42857142857144" x2="411.42857142857144" y1="0" y2="10"/>
</g>
<line stroke="black" stroke-width="1" x1="0" x2="480" y1="0" y2="0"/>
<g>
<text font-size="12" text-anchor="middle" x="0" y="20">
1
</text>
<text font-size="12" text-anchor="middle" x="137.14285714285714" y="20">
11
</text>
<text font-size="12" text-anchor="middle" x="274.2857142857143" y="20">
21
</text>
<text font-size="12" text-anchor="middle" x="411.42857142857144" y="20">
31
</text>
</g>
<text font-size="12" text-anchor="middle" x="240" y="30">

</text>
</g>
<g>
<g>
<line stroke="black" stroke-width="1" x1="0" x2="-10" y1="0" y2="0"/>
<line stroke="black" stroke-width="1" x1="0" x2="-10" y1="-85" y2="-85"/>
<line stroke="black" stroke-width="1" x1="0" x2="-10" y1="-170" y2="-170"/>
<line stroke="black" stroke-width="1" x1="0" x2="-10" y1="-255" y2="-255"/>
<line stroke="black" stroke-width="1" x1="0" x2="-10" y1="-340" y2="-340"/>
</g>
<line stroke="black" stroke-width="1" x1="0" x2="0" y1="0" y2="-340"/>
<g>
<text dominant-baseline="middle" font-size="12" text-anchor="end" x="-15" y="0">
50
</text>
<text dominant-baseline="middle" font-size="12" text-anchor="end" x="-15" y="-85">
70
</text>
<text dominant-baseline="middle" font-size="12" text-anchor="end" x="-15" y="-170">
90
</text>
<text dominant-baseline="middle" font-size="12" text-anchor="end" x="-15" y="-255">
110
</text>
<text dominant-baseline="middle" font-size="12" text-anchor="end" x="-15" y="-340">
130
</text>
</g>
<text font-size="12" text-anchor="middle" transform="rotate(-90 -36 -170)" x="-36" y="-182">

</text>
</g>
</g>
</svg>