<svg viewBox="0 0 600 400" xmlns="http://www.w3.org/2000/svg">
<g transform="translate(72, 364)">
<g>
<g>
<path d="M0,-1.5246637 L0,-1.5246637 L13.714286,-11.195388 L27.428572,-20.866112 L41.142857,-30.536835 L54.857143,-40.207558 L68.57143,-49.878284 L82.28571,-59.549007 L96,-69.219734 L109.71429,-78.89046 L123.42857,-88.56118 L137.14285,-98.2319 L150.85715,-107.902626 L164.57143,-88.56118 L178.28572,-127.24407 L192,-136.9148 L205.71428,-146.58553 L219.42857,-156.25624 L233.14285,-165.92697 L246.85715,-175.59769 L260.57144,-185.26842 L274.2857,-194.93915 L288,-204.60986 L301.7143,-214.2806 L315.42856,-223.95131 L329.14285,-233.62204 L342.85715,-243.29276 L356.57144,-252.96349 L370.2857,-262.63422 L384,-272.30493 L397.7143,-281.97565 L411.42856,-291.6464 L425.14285,-301.3171 L438.85715,-310.98782 L452.57144,-320.65854 L466.2857,-330.32928 L480,-340" fill="none" stroke="#000000" stroke-linejoin="round" stroke-width="2"/>
</g>
<g>
<circle cx="0" cy="-1.5246636771300546" fill="#000000" r="5"/>
<circle cx="13.714285714285714" cy="-11.195387572069196" fill="#000000" r="5"/>
<circle cx="27.428571428571427" cy="-20.866111467008334" fill="#000000" r="5"/>
<circle cx="41.142857142857146" cy="-30.536835361947478" fill="#000000" r="5"/>
<circle cx="54.857142857142854" cy="-40.20755925688662" fill="#000000" r="5"/>
<circle cx="68.57142857142857" cy="-49.878283151825755" fill="#000000" r="5"/>
<circle cx="82.28571428571429" cy="-59.5490070467649" fill="#000000" r="5"/>
<circle cx="96" cy="-69.21973094170404" fill="#000000" r="5"/>
<circle cx="109.71428571428571" cy="-78.89045483664319" fill="#000000" r="5"/>
<circle cx="123.42857142857143" cy="-88.56117873158232" fill="#000000" r="5"/>
<circle cx="137.14285714285714" cy="-98.23190262652145" fill="#000000" r="5"/>
<circle cx="150.85714285714286" cy="-107.90262652146059" fill="#000000" r="5"/>
<circle cx="164.57142857142858" cy="-88.56117873158232" fill="#000000" r="5"/>
<circle cx="178.28571428571428" cy="-127.24407431133889" fill="#000000" r="5"/>
<circle cx="192" cy="-136.91479820627805" fill="#000000" r="5"/>
<circle cx="205.71428571428572" cy="-146.58552210121718" fill="#000000" r="5"/>
<circle cx="219.42857142857142" cy="-156.2562459961563" fill="#000000" r="5"/>
<circle cx="233.14285714285714" cy="-165.92696989109547" fill="#000000" r="5"/>
<circle cx="246.85714285714286" cy="-175.5976937860346" fill="#000000" r="5"/>
<circle cx="260.57142857142856" cy="-185.26841768097376" fill="#000000" r="5"/>
<circle cx="274.2857142857143" cy="-194.9391415759129" fill="#000000" r="5"/>
<circle cx="288" cy="-204.60986547085204" fill="#000000" r="5"/>
<circle cx="301.7142857142857" cy="-214.28058936579117" fill="#000000" r="5"/>
<circle cx="315.42857142857144" cy="-223.95131326073033" fill="#000000" r="5"/>
<circle cx="329.14285714285717" cy="-233.62203715566946" fill="#000000" r="5"/>
<circle cx="342.85714285714283" cy="-243.29276105060862" fill="#000000" r="5"/>
<circle cx="356.57142857142856" cy="-252.96348494554775" fill="#000000" r="5"/>
<circle cx="370.2857142857143" cy="-262.6342088404869" fill="#000000" r="5"/>
<circle cx="384" cy="-272.304932735426" fill="#000000" r="5"/>
<circle cx="397.7142857142857" cy="-281.97565663036517" fill="#000000" r="5"/>
<circle cx="411.42857142857144" cy="-291.6463805253043" fill="#000000" r="5"/>
<circle cx="425.14285714285717" cy="-301.3171044202435" fill="#000000" r="5"/>
<circle cx="438.85714285714283" cy="-310.9878283151826" fill="#000000" r="5"/>
<circle cx="452.57142857142856" cy="-320.65855221012174" fill="#000000" r="5"/>
<circle cx="466.2857142857143" cy="-330.3292761050609" fill="#000000" r="5"/>
<circle cx="480" cy="-340" fill="#000000" r="5"/>
</g>
</g>
<g>
<g>
<path d="M0,0 L0,0 L13.714286,-9.711797 L27.428572,-19.423594 L41.142857,-29.13539 L54.857143,-38.847187 L68.57143,-48.558983 L82.28571,-58.27078 L96,-67.982574 L109.71429,-77.694374 L123.42857,-87.406166 L137.14285,-97.117966 L150.85715,-106.82976 L164.57143,-116.54156 L178.28572,-126.25336 L192,-135.96515 L205.71428,-145.67694 L219.42857,-155.38875 L233.14285,-165.10054 L246.85715,-174.81233 L260.57144,-184.52414 L274.2857,-194.23593 L288,-203.94772 L301.7143,-213.65952 L315.42856,-223.37132 L329.14285,-233.08311 L342.85715,-242.7949 L356.57144,-252.50671 L370.2857,-262.2185 L384,-271.9303 L397.7143,-281.6421 L411.42856,-291.35388 L425.14285,-301.0657 L438.85715,-310.7775 L452.57144,-320.4893 L466.2857,-330.20108 L480,-339.91287" fill="none" stroke="#ff00aa" stroke-linejoin="round" stroke-width="2"/>
</g>
<g>
<circle cx="0" cy="0" fill="#ff00aa" r="5"/>
<circle cx="13.714285714285714" cy="-9.711796467465907" fill="#ff00aa" r="5"/>
<circle cx="27.428571428571427" cy="-19.42359293493182" fill="#ff00aa" r="5"/>
<circle cx="41.142857142857146" cy="-29.13538940239773" fill="#ff00aa" r="5"/>
<circle cx="54.857142857142854" cy="-38.84718586986364" fill="#ff00aa" r="5"/>
<circle cx="68.57142857142857" cy="-48.55898233732955" fill="#ff00aa" r="5"/>
<circle cx="82.28571428571429" cy="-58.27077880479544" fill="#ff00aa" r="5"/>
<circle cx="96" cy="-67.98257527226136" fill="#ff00aa" r="5"/>
<circle cx="109.71428571428571" cy="-77.69437173972727" fill="#ff00aa" r="5"/>
<circle cx="123.42857142857143" cy="-87.40616820719318" fill="#ff00aa" r="5"/>
<circle cx="137.14285714285714" cy="-97.11796467465908" fill="#ff00aa" r="5"/>
<circle cx="150.85714285714286" cy="-106.829761142125" fill="#ff00aa" r="5"/>
<circle cx="164.57142857142858" cy="-116.54155760959092" fill="#ff00aa" r="5"/>
<circle cx="178.28571428571428" cy="-126.25335407705684" fill="#ff00aa" r="5"/>
<circle cx="192" cy="-135.96515054452274" fill="#ff00aa" r="5"/>
<circle cx="205.71428571428572" cy="-145.67694701198866" fill="#ff00aa" r="5"/>
<circle cx="219.42857142857142" cy="-155.3887434794546" fill="#ff00aa" r="5"/>
<circle cx="233.14285714285714" cy="-165.1005399469205" fill="#ff00aa" r="5"/>
<circle cx="246.85714285714286" cy="-174.8123364143864" fill="#ff00aa" r="5"/>
<circle cx="260.57142857142856" cy="-184.5241328818523" fill="#ff00aa" r="5"/>
<circle cx="274.2857142857143" cy="-194.23592934931824" fill="#ff00aa" r="5"/>
<circle cx="288" cy="-203.9477258167841" fill="#ff00aa" r="5"/>
<circle cx="301.7142857142857" cy="-213.65952228425002" fill="#ff00aa" r="5"/>
<circle cx="315.42857142857144" cy="-223.37131875171596" fill="#ff00aa" r="5"/>
<circle cx="329.14285714285717" cy="-233.08311521918185" fill="#ff00aa" r="5"/>
<circle cx="342.85714285714283" cy="-242.79491168664774" fill="#ff00aa" r="5"/>
<circle cx="356.57142857142856" cy="-252.50670815411368" fill="#ff00aa" r="5"/>
<circle cx="370.2857142857143" cy="-262.21850462157954" fill="#ff00aa" r="5"/>
<circle cx="384" cy="-271.93030108904543" fill="#ff00aa" r="5"/>
<circle cx="397.7142857142857" cy="-281.6420975565113" fill="#ff00aa" r="5"/>
<circle cx="411.42857142857144" cy="-291.35389402397726" fill="#ff00aa" r="5"/>
<circle cx="425.14285714285717" cy="-301.0656904914432" fill="#ff00aa" r="5"/>
<circle cx="438.85714285714283" cy="-310.7774869589091" fill="#ff00aa" r="5"/>
<circle cx="452.57142857142856" cy="-320.48928342637504" fill="#ff00aa" r="5"/>
<circle cx="466.2857142857143" cy="-330.2010798938409" fill="#ff00aa" r="5"/>
<circle cx="480" cy="-339.91287636130687" fill="#ff00aa" r="5"/>
</g>
</g>
<g>
<g>
<path d="M13.714286,-1.5246637 L13.714286,-1.5246637 L27.428572,-5.3929534 L41.142857,-11.582216 L54.857143,-19.164064 L68.57143,-27.581463 L82.28571,-36.50019 L96,-45.71972 L109.71429,-55.119724 L123.42857,-64.62801 L137.14285,-74.20128 L150.85715,-83.81353 L164.57143,-93.449165 L178.28572,-91.49397 L192,-105.794014 L205.71428,-118.242325 L219.42857,-129.5796 L233.14285,-140.25026 L246.85715,-150.52095 L260.57144,-160.55165 L274.2857,-170.43835 L288,-180.23866 L301.7143,-189.98715 L315.42856,-199.70453 L329.14285,-209.40324 L342.85715,-219.09076 L356.57144,-228.77156 L370.2857,-238.44833 L384,-248.12268 L397.7143,-257.7956 L411.42856,-267.46762 L425.14285,-277.13913 L438.85715,-286.8103 L452.57144,-296.48132 L466.2857,-306.15222 L480,-315.82303" fill="none" stroke="#a0fa33" stroke-linejoin="round" stroke-width="2"/>
</g>
<g>
<circle cx="13.714285714285714" cy="-1.5246636771300546" fill="#a0fa33" r="5"/>
<circle cx="27.428571428571427" cy="-5.39295323510571" fill="#a0fa33" r="5"/>
<circle cx="41.142857142857146" cy="-11.58221652786676" fill="#a0fa33" r="5"/>
<circle cx="54.857142857142854" cy="-19.164064061499047" fill="#a0fa33" r="5"/>
<circle cx="68.57142857142857" cy="-27.58146213965408" fill="#a0fa33" r="5"/>
<circle cx="82.28571428571429" cy="-36.500190544522745" fill="#a0fa33" r="5"/>
<circle cx="96" cy="-45.7197171454196" fill="#a0fa33" r="5"/>
<circle cx="109.71428571428571" cy="-55.11972266393339" fill="#a0fa33" r="5"/>
<circle cx="123.42857142857143" cy="-64.62801553301729" fill="#a0fa33" r="5"/>
<circle cx="137.14285714285714" cy="-74.2012808124433" fill="#a0fa33" r="5"/>
<circle cx="150.85714285714286" cy="-83.81352953807456" fill="#a0fa33" r="5"/>
<circle cx="164.57142857142858" cy="-93.44916833142896" fill="#a0fa33" r="5"/>
<circle cx="178.28571428571428" cy="-91.49397249149031" fill="#a0fa33" r="5"/>
<circle cx="192" cy="-105.79401321942973" fill="#a0fa33" r="5"/>
<circle cx="205.71428571428572" cy="-118.24232721416905" fill="#a0fa33" r="5"/>
<circle cx="219.42857142857142" cy="-129.5796051689883" fill="#a0fa33" r="5"/>
<circle cx="233.14285714285714" cy="-140.25026149985553" fill="#a0fa33" r="5"/>
<circle cx="246.85714285714286" cy="-150.5209448563515" fill="#a0fa33" r="5"/>
<circle cx="260.57142857142856" cy="-160.5516444282247" fill="#a0fa33" r="5"/>
<circle cx="274.2857142857143" cy="-170.43835372932432" fill="#a0fa33" r="5"/>
<circle cx="288" cy="-180.23866886795972" fill="#a0fa33" r="5"/>
<circle cx="301.7142857142857" cy="-189.98714750911665" fill="#a0fa33" r="5"/>
<circle cx="315.42857142857144" cy="-199.70452425178644" fill="#a0fa33" r="5"/>
<circle cx="329.14285714285717" cy="-209.40323985536398" fill="#a0fa33" r="5"/>
<circle cx="342.85714285714283" cy="-219.09075877548617" fill="#a0fa33" r="5"/>
<circle cx="356.57142857142856" cy="-228.7715596855351" fill="#a0fa33" r="5"/>
<circle cx="370.2857142857143" cy="-238.44832978954014" fill="#a0fa33" r="5"/>
<circle cx="384" cy="-248.12268140991884" fill="#a0fa33" r="5"/>
<circle cx="397.7142857142857" cy="-257.7955819401217" fill="#a0fa33" r="5"/>
<circle cx="411.42857142857144" cy="-267.46761181621906" fill="#a0fa33" r="5"/>
<circle cx="425.14285714285717" cy="-277.1391192998531" fill="#a0fa33" r="5"/>
<circle cx="438.85714285714283" cy="-286.81031334800923" fill="#a0fa33" r="5"/>
<circle cx="452.57142857142856" cy="-296.48131933487855" fill="#a0fa33" r="5"/>
<circle cx="466.2857142857143" cy="-306.15221248497573" fill="#a0fa33" r="5"/>
<circle cx="480" cy="-315.82303793300974" fill="#a0fa33" r="5"/>
</g>
</g>
<g>
<g>
<line stroke="black" stroke-width="1" x1="0" x2="0" y1="0" y2="10"/>
<line stroke="black" stroke-width="1" x1="137.14285714285714" x2="137.14285714285714" y1="0" y2="10"/>
<line stroke="black" stroke-width="1" x1="274.2857142857143" x2="274.2857142857143" y1="0" y2="10"/>
<line stroke="black" stroke-width="1" x1="411.42857142857144" x2="411.42857142857144" y1="0" y2="10"/>
</g>
<line stroke="black" stroke-width="1" x1="0" x2="480" y1="0" y2="0"/>
<g>
<text font-size="12" text-anchor="middle" x="0" y="20">
1
</text>
<text font-size="12" text-anchor="middle" x="137.14285714285714" y="20">
11
</text>
<text font-size="12" text-anchor="middle" x="274.2857142857143" y="20">
21
</text>
<text font-size="12" text-anchor="middle" x="411.42857142857144" y="20">
31
</text>
</g>
<text font-size="12" text-anchor="middle" x="240" y="30">

</text>
</g>
<g>
<g>
<line stroke="black" stroke-width="1" x1="0" x2="-10" y1="0.0000033106982604486657" y2="0.0000033106982604486657"/>
<line stroke="black" stroke-width="1" x1="0" x2="-10" y1="-96.70723563869313" y2="-96.70723563869313"/>
<line stroke="black" stroke-width="1" x1="0" x2="-10" y1="-193.41447458808457" y2="-193.41447458808457"/>
<line stroke="black" stroke-width="1" x1="0" x2="-10" y1="-290.12171353747596" y2="-290.12171353747596"/>
</g>
<line stroke="black" stroke-width="1" x1="0" x2="0" y1="0" y2="-340"/>
<g>
<text dominant-baseline="middle" font-size="12" text-anchor="end" x="-15" y="0.0000033106982604486657">
8.42342
</text>
<text dominant-baseline="middle" font-size="12" text-anchor="end" x="-15" y="-96.70723563869313">
108.42342
</text>
<text dominant-baseline="middle" font-size="12" text-anchor="end" x="-15" y="-193.41447458808457">
208.42342
</text>
<text dominant-baseline="middle" font-size="12" text-anchor="end" x="-15" y="-290.12171353747596">
308.42342
</text>
</g>
<text font-size="12" text-anchor="middle" transform="rotate(-90 -108 -170)" x="-108" y="-182">

</text>
</g>
</g>
</svg>