<svg viewBox="0 0 600 400" xmlns="http://www.w3.org/2000/svg">
<g transform="translate(72, 364)">
<g>
<g>
<path d="M0,-340 L0,-340 L43.636364,-113.333336 L87.27273,-56.666668 L130.90909,0 L174.54546,-56.666668 L218.18182,-170 L261.81818,-170 L305.45456,0 L349.0909,-56.666668 L392.72726,-113.333336 L436.36365,-226.66667 L480,-340" fill="none" stroke="#000000" stroke-linejoin="round" stroke-width="2"/>
</g>
<g>
<circle cx="0" cy="-340" fill="#000000" r="5"/>
<circle cx="43.63636363636363" cy="-113.33333333333333" fill="#000000" r="5"/>
<circle cx="87.27272727272727" cy="-56.666666666666664" fill="#000000" r="5"/>
<circle cx="130.9090909090909" cy="0" fill="#000000" r="5"/>
<circle cx="174.54545454545453" cy="-56.666666666666664" fill="#000000" r="5"/>
<circle cx="218.1818181818182" cy="-170" fill="#000000" r="5"/>
<circle cx="261.8181818181818" cy="-170" fill="#000000" r="5"/>
<circle cx="305.45454545454544" cy="0" fill="#000000" r="5"/>
<circle cx="349.09090909090907" cy="-56.666666666666664" fill="#000000" r="5"/>
<circle cx="392.72727272727275" cy="-113.33333333333333" fill="#000000" r="5"/>
<circle cx="436.3636363636364" cy="-226.66666666666666" fill="#000000" r="5"/>
<circle cx="480" cy="-340" fill="#000000" r="5"/>
</g>
</g>
<g>
<g>
<line stroke="black" stroke-width="1" x1="0" x2="0" y1="0" y2="10"/>
<line stroke="black" stroke-width="1" x1="87.27272727272727" x2="87.27272727272727" y1="0" y2="10"/>
<line stroke="black" stroke-width="1" x1="174.54545454545453" x2="174.54545454545453" y1="0" y2="10"/>
<line stroke="black" stroke-width="1" x1="261.8181818181818" x2="261.8181818181818" y1="0" y2="10"/>
<line stroke="black" stroke-width="1" x1="349.09090909090907" x2="349.09090909090907" y1="0" y2="10"/>
<line stroke="black" stroke-width="1" x1="436.3636363636364" x2="436.3636363636364" y1="0" y2="10"/>
</g>
<line stroke="black" stroke-width="1" x1="0" x2="480" y1="0" y2="0"/>
<g>
<text font-size="12" text-anchor="middle" x="0" y="20">
1
</text>
<text font-size="12" text-anchor="middle" x="87.27272727272727" y="20">
3
</text>
<text font-size="12" text-anchor="middle" x="174.54545454545453" y="20">
5
</text>
<text font-size="12" text-anchor="middle" x="261.8181818181818" y="20">
7
</text>
<text font-size="12" text-anchor="middle" x="349.09090909090907" y="20">
9
</text>
<text font-size="12" text-anchor="middle" x="436.3636363636364" y="20">
11
</text>
</g>
<text font-size="12" text-anchor="middle" x="240" y="30">

</text>
</g>
<g>
<g>
<line stroke="black" stroke-width="1" x1="0" x2="-10" y1="0" y2="0"/>
<line stroke="black" stroke-width="1" x1="0" x2="-10" y1="-113.33333333333333" y2="-113.33333333333333"/>
<line stroke="black" stroke-width="1" x1="0" x2="-10" y1="-226.66666666666666" y2="-226.66666666666666"/>
<line stroke="black" stroke-width="1" x1="0" x2="-10" y1="-340" y2="-340"/>
</g>
<line stroke="black" stroke-width="1" x1="0" x2="0" y1="0" y2="-340"/>
<g>
<text dominant-baseline="middle" font-size="12" text-anchor="end" x="-15" y="0">
60
</text>
<text dominant-baseline="middle" font-size="12" text-anchor="end" x="-15" y="-113.33333333333333">
80
</text>
<text dominant-baseline="middle" font-size="12" text-anchor="end" x="-15" y="-226.66666666666666">
100
</text>
<text dominant-baseline="middle" font-size="12" text-anchor="end" x="-15" y="-340">
120
</text>
</g>
<text font-size="12" text-anchor="middle" transform="rotate(-90 -36 -170)" x="-36" y="-182">

</text>
</g>
</g>
</svg>