<svg viewBox="0 0 600 400" xmlns="http://www.w3.org/2000/svg">
<g transform="translate(72, 364)">
<g>
<g>
<path d="M0,-340 L0,-340 L30,-170 L60,-127.5 L90,-85 L120,-127.5 L150,-212.5 L180,-212.5 L210,-85 L240,-127.5 L270,-170 L300,-255 L330,-340 L360,-127.5 L390,0 L420,-85 L450,-42.5 L480,-212.5" fill="none" stroke="#000000" stroke-linejoin="round" stroke-width="2"/>
</g>
<g>
<circle cx="0" cy="-340" fill="#000000" r="5"/>
<circle cx="30" cy="-170" fill="#000000" r="5"/>
<circle cx="60" cy="-127.5" fill="#000000" r="5"/>
<circle cx="90" cy="-85" fill="#000000" r="5"/>
<circle cx="120" cy="-127.5" fill="#000000" r="5"/>
<circle cx="150" cy="-212.5" fill="#000000" r="5"/>
<circle cx="180" cy="-212.5" fill="#000000" r="5"/>
<circle cx="210" cy="-85" fill="#000000" r="5"/>
<circle cx="240" cy="-127.5" fill="#000000" r="5"/>
<circle cx="270" cy="-170" fill="#000000" r="5"/>
<circle cx="300" cy="-255" fill="#000000" r="5"/>
<circle cx="330" cy="-340" fill="#000000" r="5"/>
<circle cx="360" cy="-127.5" fill="#000000" r="5"/>
<circle cx="390" cy="0" fill="#000000" r="5"/>
<circle cx="420" cy="-85" fill="#000000" r="5"/>
<circle cx="450" cy="-42.5" fill="#000000" r="5"/>
<circle cx="480" cy="-212.5" fill="#000000" r="5"/>
</g>
</g>
<g>
<g>
<line stroke="black" stroke-width="1" x1="0" x2="0" y1="0" y2="10"/>
<line stroke="black" stroke-width="1" x1="120" x2="120" y1="0" y2="10"/>
<line stroke="black" stroke-width="1" x1="240" x2="240" y1="0" y2="10"/>
<line stroke="black" stroke-width="1" x1="360" x2="360" y1="0" y2="10"/>
<line stroke="black" stroke-width="1" x1="480" x2="480" y1="0" y2="10"/>
</g>
<line stroke="black" stroke-width="1" x1="0" x2="480" y1="0" y2="0"/>
<g>
<text font-size="12" text-anchor="middle" x="0" y="20">
1
</text>
<text font-size="12" text-anchor="middle" x="120" y="20">
5
</text>
<text font-size="12" text-anchor="middle" x="240" y="20">
9
</text>
<text font-size="12" text-anchor="middle" x="360" y="20">
13
</text>
<text font-size="12" text-anchor="middle" x="480" y="20">
17
</text>
</g>
<text font-size="12" text-anchor="middle" x="240" y="30">

</text>
</g>
<g>
<g>
<line stroke="black" stroke-width="1" x1="0" x2="-10" y1="0" y2="0"/>
<line stroke="black" stroke-width="1" x1="0" x2="-10" y1="-85" y2="-85"/>
<line stroke="black" stroke-width="1" x1="0" x2="-10" y1="-170" y2="-170"/>
<line stroke="black" stroke-width="1" x1="0" x2="-10" y1="-255" y2="-255"/>
<line stroke="black" stroke-width="1" x1="0" x2="-10" y1="-340" y2="-340"/>
</g>
<line stroke="black" stroke-width="1" x1="0" x2="0" y1="0" y2="-340"/>
<g>
<text dominant-baseline="middle" font-size="12" text-anchor="end" x="-15" y="0">
40
</text>
<text dominant-baseline="middle" font-size="12" text-anchor="end" x="-15" y="-85">
60
</text>
<text dominant-baseline="middle" font-size="12" text-anchor="end" x="-15" y="-170">
80
</text>
<text dominant-baseline="middle" font-size="12" text-anchor="end" x="-15" y="-255">
100
</text>
<text dominant-baseline="middle" font-size="12" text-anchor="end" x="-15" y="-340">
120
</text>
</g>
<text font-size="12" text-anchor="middle" transform="rotate(-90 -36 -170)" x="-36" y="-182">

</text>
</g>
</g>
</svg>