<svg viewBox="0 0 600 400" xmlns="http://www.w3.org/2000/svg">
<g transform="translate(72, 364)">
<g>
<g>
<path d="M0,-145.71428 L0,-145.71428 L14.545455,-97.14286 L29.09091,-97.14286 L43.636364,-97.14286 L58.18182,-194.28572 L72.72727,-194.28572 L87.27273,-97.14286 L101.818184,-97.14286 L116.36364,-145.71428 L130.90909,-242.85715 L145.45454,-242.85715 L160,-242.85715 L174.54546,-145.71428 L189.09091,-145.71428 L203.63637,-145.71428 L218.18182,-194.28572 L232.72728,-194.28572 L247.27272,-194.28572 L261.81818,-145.71428 L276.36365,0 L290.9091,0 L305.45456,-97.14286 L320,-145.71428 L334.54544,-145.71428 L349.0909,-97.14286 L363.63635,-97.14286 L378.18182,-145.71428 L392.72726,-145.71428 L407.27274,-242.85715 L421.81818,-340 L436.36365,-242.85715 L450.9091,-97.14286 L465.45456,-97.14286 L480,-194.28572" fill="none" stroke="#000000" stroke-linejoin="round" stroke-width="2"/>
</g>
<g>
<circle cx="0" cy="-145.71428571428572" fill="#000000" r="5"/>
<circle cx="14.545454545454545" cy="-97.14285714285714" fill="#000000" r="5"/>
<circle cx="29.09090909090909" cy="-97.14285714285714" fill="#000000" r="5"/>
<circle cx="43.63636363636363" cy="-97.14285714285714" fill="#000000" r="5"/>
<circle cx="58.18181818181818" cy="-194.28571428571428" fill="#000000" r="5"/>
<circle cx="72.72727272727273" cy="-194.28571428571428" fill="#000000" r="5"/>
<circle cx="87.27272727272727" cy="-97.14285714285714" fill="#000000" r="5"/>
<circle cx="101.81818181818181" cy="-97.14285714285714" fill="#000000" r="5"/>
<circle cx="116.36363636363636" cy="-145.71428571428572" fill="#000000" r="5"/>
<circle cx="130.9090909090909" cy="-242.85714285714286" fill="#000000" r="5"/>
<circle cx="145.45454545454547" cy="-242.85714285714286" fill="#000000" r="5"/>
<circle cx="160" cy="-242.85714285714286" fill="#000000" r="5"/>
<circle cx="174.54545454545453" cy="-145.71428571428572" fill="#000000" r="5"/>
<circle cx="189.0909090909091" cy="-145.71428571428572" fill="#000000" r="5"/>
<circle cx="203.63636363636363" cy="-145.71428571428572" fill="#000000" r="5"/>
<circle cx="218.1818181818182" cy="-194.28571428571428" fill="#000000" r="5"/>
<circle cx="232.72727272727272" cy="-194.28571428571428" fill="#000000" r="5"/>
<circle cx="247.27272727272728" cy="-194.28571428571428" fill="#000000" r="5"/>
<circle cx="261.8181818181818" cy="-145.71428571428572" fill="#000000" r="5"/>
<circle cx="276.3636363636364" cy="0" fill="#000000" r="5"/>
<circle cx="290.90909090909093" cy="0" fill="#000000" r="5"/>
<circle cx="305.45454545454544" cy="-97.14285714285714" fill="#000000" r="5"/>
<circle cx="320" cy="-145.71428571428572" fill="#000000" r="5"/>
<circle cx="334.54545454545456" cy="-145.71428571428572" fill="#000000" r="5"/>
<circle cx="349.09090909090907" cy="-97.14285714285714" fill="#000000" r="5"/>
<circle cx="363.6363636363636" cy="-97.14285714285714" fill="#000000" r="5"/>
<circle cx="378.1818181818182" cy="-145.71428571428572" fill="#000000" r="5"/>
<circle cx="392.72727272727275" cy="-145.71428571428572" fill="#000000" r="5"/>
<circle cx="407.27272727272725" cy="-242.85714285714286" fill="#000000" r="5"/>
<circle cx="421.8181818181818" cy="-340" fill="#000000" r="5"/>
<circle cx="436.3636363636364" cy="-242.85714285714286" fill="#000000" r="5"/>
<circle cx="450.90909090909093" cy="-97.14285714285714" fill="#000000" r="5"/>
<circle cx="465.45454545454544" cy="-97.14285714285714" fill="#000000" r="5"/>
<circle cx="480" cy="-194.28571428571428" fill="#000000" r="5"/>
</g>
</g>
<g>
<g>
<line stroke="black" stroke-width="1" x1="0" x2="0" y1="0" y2="10"/>
<line stroke="black" stroke-width="1" x1="145.45454545454547" x2="145.45454545454547" y1="0" y2="10"/>
<line stroke="black" stroke-width="1" x1="290.90909090909093" x2="290.90909090909093" y1="0" y2="10"/>
<line stroke="black" stroke-width="1" x1="436.3636363636364" x2="436.3636363636364" y1="0" y2="10"/>
</g>
<line stroke="black" stroke-width="1" x1="0" x2="480" y1="0" y2="0"/>
<g>
<text font-size="12" text-anchor="middle" x="0" y="20">
2
</text>
<text font-size="12" text-anchor="middle" x="145.45454545454547" y="20">
12
</text>
<text font-size="12" text-anchor="middle" x="290.90909090909093" y="20">
22
</text>
<text font-size="12" text-anchor="middle" x="436.3636363636364" y="20">
32
</text>
</g>
<text font-size="12" text-anchor="middle" x="240" y="30">

</text>
</g>
<g>
<g>
<line stroke="black" stroke-width="1" x1="0" x2="-10" y1="0" y2="0"/>
<line stroke="black" stroke-width="1" x1="0" x2="-10" y1="-97.14285714285714" y2="-97.14285714285714"/>
<line stroke="black" stroke-width="1" x1="0" x2="-10" y1="-194.28571428571428" y2="-194.28571428571428"/>
<line stroke="black" stroke-width="1" x1="0" x2="-10" y1="-291.42857142857144" y2="-291.42857142857144"/>
</g>
<line stroke="black" stroke-width="1" x1="0" x2="0" y1="0" y2="-340"/>
<g>
<text dominant-baseline="middle" font-size="12" text-anchor="end" x="-15" y="0">
50
</text>
<text dominant-baseline="middle" font-size="12" text-anchor="end" x="-15" y="-97.14285714285714">
70
</text>
<text dominant-baseline="middle" font-size="12" text-anchor="end" x="-15" y="-194.28571428571428">
90
</text>
<text dominant-baseline="middle" font-size="12" text-anchor="end" x="-15" y="-291.42857142857144">
110
</text>
</g>
<text font-size="12" text-anchor="middle" transform="rotate(-90 -36 -170)" x="-36" y="-182">

</text>
</g>
</g>
</svg>