<svg viewBox="0 0 600 400" xmlns="http://www.w3.org/2000/svg">
<g transform="translate(72, 364)">
<g>
<g>
<path d="M0,-212.5 L0,-212.5 L10.212766,-170 L20.425531,-127.5 L30.638298,-85 L40.851063,-42.5 L51.06383,-127.5 L61.276596,-85 L71.489365,-212.5 L81.702126,-340 L91.914894,-255 L102.12766,-297.5 L112.34042,-297.5 L122.55319,-170 L132.76596,-127.5 L142.97873,-212.5 L153.19148,-127.5 L163.40425,-85 L173.61702,-42.5 L183.82979,0 L194.04256,-127.5 L204.25533,-170 L214.46808,-212.5 L224.68085,-297.5 L234.89362,-255 L245.10638,-127.5 L255.31915,-170 L265.53192,-212.5 L275.7447,-255 L285.95746,-297.5 L296.17023,-212.5 L306.38297,-297.5 L316.59573,-212.5 L326.8085,-212.5 L337.02127,-255 L347.23404,-297.5 L357.4468,-340" fill="none" stroke="#fa0023" stroke-linejoin="round" stroke-width="2"/>
</g>
<g>
<circle cx="0" cy="-212.5" fill="#fa0023" r="5"/>
<circle cx="10.212765957446809" cy="-170" fill="#fa0023" r="5"/>
<circle cx="20.425531914893618" cy="-127.5" fill="#fa0023" r="5"/>
<circle cx="30.638297872340427" cy="-85" fill="#fa0023" r="5"/>
<circle cx="40.851063829787236" cy="-42.5" fill="#fa0023" r="5"/>
<circle cx="51.06382978723404" cy="-127.5" fill="#fa0023" r="5"/>
<circle cx="61.276595744680854" cy="-85" fill="#fa0023" r="5"/>
<circle cx="71.48936170212765" cy="-212.5" fill="#fa0023" r="5"/>
<circle cx="81.70212765957447" cy="-340" fill="#fa0023" r="5"/>
<circle cx="91.91489361702128" cy="-255" fill="#fa0023" r="5"/>
<circle cx="102.12765957446808" cy="-297.5" fill="#fa0023" r="5"/>
<circle cx="112.34042553191489" cy="-297.5" fill="#fa0023" r="5"/>
<circle cx="122.55319148936171" cy="-170" fill="#fa0023" r="5"/>
<circle cx="132.7659574468085" cy="-127.5" fill="#fa0023" r="5"/>
<circle cx="142.9787234042553" cy="-212.5" fill="#fa0023" r="5"/>
<circle cx="153.19148936170214" cy="-127.5" fill="#fa0023" r="5"/>
<circle cx="163.40425531914894" cy="-85" fill="#fa0023" r="5"/>
<circle cx="173.61702127659575" cy="-42.5" fill="#fa0023" r="5"/>
<circle cx="183.82978723404256" cy="0" fill="#fa0023" r="5"/>
<circle cx="194.04255319148936" cy="-127.5" fill="#fa0023" r="5"/>
<circle cx="204.25531914893617" cy="-170" fill="#fa0023" r="5"/>
<circle cx="214.46808510638297" cy="-212.5" fill="#fa0023" r="5"/>
<circle cx="224.68085106382978" cy="-297.5" fill="#fa0023" r="5"/>
<circle cx="234.89361702127658" cy="-255" fill="#fa0023" r="5"/>
<circle cx="245.10638297872342" cy="-127.5" fill="#fa0023" r="5"/>
<circle cx="255.31914893617022" cy="-170" fill="#fa0023" r="5"/>
<circle cx="265.531914893617" cy="-212.5" fill="#fa0023" r="5"/>
<circle cx="275.74468085106383" cy="-255" fill="#fa0023" r="5"/>
<circle cx="285.9574468085106" cy="-297.5" fill="#fa0023" r="5"/>
<circle cx="296.17021276595744" cy="-212.5" fill="#fa0023" r="5"/>
<circle cx="306.3829787234043" cy="-297.5" fill="#fa0023" r="5"/>
<circle cx="316.59574468085106" cy="-212.5" fill="#fa0023" r="5"/>
<circle cx="326.8085106382979" cy="-212.5" fill="#fa0023" r="5"/>
<circle cx="337.02127659574467" cy="-255" fill="#fa0023" r="5"/>
<circle cx="347.2340425531915" cy="-297.5" fill="#fa0023" r="5"/>
<circle cx="357.4468085106383" cy="-340" fill="#fa0023" r="5"/>
</g>
</g>
<g>
<g>
<path d="M10.212766,-212.5 L10.212766,-212.5 L20.425531,-195.5 L30.638298,-168.3 L40.851063,-134.98 L51.06383,-97.988 L61.276596,-109.7928 L71.489365,-99.87568 L81.702126,-144.92542 L91.914894,-222.95525 L102.12766,-235.77315 L112.34042,-260.4639 L122.55319,-275.27832 L132.76596,-233.16699 L142.97873,-190.90019 L153.19148,-199.54012 L163.40425,-170.72408 L173.61702,-136.43445 L183.82979,-98.860664 L194.04256,-59.3164 L204.25533,-86.589836 L214.46808,-119.9539 L224.68085,-156.97234 L234.89362,-213.18341 L245.10638,-229.91005 L255.31915,-188.94603 L265.53192,-181.36761 L275.7447,-193.82057 L285.95746,-218.29234 L296.17023,-249.9754 L306.38297,-234.98524 L316.59573,-259.99115 L326.8085,-240.99469 L337.02127,-229.59682 L347.23404,-239.75809 L357.4468,-262.85486" fill="none" stroke="#af0af6" stroke-linejoin="round" stroke-width="2"/>
</g>
<g>
<circle cx="10.212765957446809" cy="-212.5" fill="#af0af6" r="5"/>
<circle cx="20.425531914893618" cy="-195.5" fill="#af0af6" r="5"/>
<circle cx="30.638297872340427" cy="-168.29999999999998" fill="#af0af6" r="5"/>
<circle cx="40.851063829787236" cy="-134.97999999999996" fill="#af0af6" r="5"/>
<circle cx="51.06382978723404" cy="-97.98799999999993" fill="#af0af6" r="5"/>
<circle cx="61.276595744680854" cy="-109.79279999999997" fill="#af0af6" r="5"/>
<circle cx="71.48936170212765" cy="-99.87567999999997" fill="#af0af6" r="5"/>
<circle cx="81.70212765957447" cy="-144.92540799999998" fill="#af0af6" r="5"/>
<circle cx="91.91489361702128" cy="-222.9552448" fill="#af0af6" r="5"/>
<circle cx="102.12765957446808" cy="-235.77314687999996" fill="#af0af6" r="5"/>
<circle cx="112.34042553191489" cy="-260.463888128" fill="#af0af6" r="5"/>
<circle cx="122.55319148936171" cy="-275.27833287679994" fill="#af0af6" r="5"/>
<circle cx="132.7659574468085" cy="-233.16699972607995" fill="#af0af6" r="5"/>
<circle cx="142.9787234042553" cy="-190.90019983564792" fill="#af0af6" r="5"/>
<circle cx="153.19148936170214" cy="-199.54011990138875" fill="#af0af6" r="5"/>
<circle cx="163.40425531914894" cy="-170.72407194083323" fill="#af0af6" r="5"/>
<circle cx="173.61702127659575" cy="-136.4344431644999" fill="#af0af6" r="5"/>
<circle cx="183.82978723404256" cy="-98.86066589869992" fill="#af0af6" r="5"/>
<circle cx="194.04255319148936" cy="-59.316399539219944" fill="#af0af6" r="5"/>
<circle cx="204.25531914893617" cy="-86.58983972353197" fill="#af0af6" r="5"/>
<circle cx="214.46808510638297" cy="-119.95390383411916" fill="#af0af6" r="5"/>
<circle cx="224.68085106382978" cy="-156.97234230047152" fill="#af0af6" r="5"/>
<circle cx="234.89361702127658" cy="-213.18340538028292" fill="#af0af6" r="5"/>
<circle cx="245.10638297872342" cy="-229.9100432281697" fill="#af0af6" r="5"/>
<circle cx="255.31914893617022" cy="-188.94602593690178" fill="#af0af6" r="5"/>
<circle cx="265.531914893617" cy="-181.36761556214105" fill="#af0af6" r="5"/>
<circle cx="275.74468085106383" cy="-193.82056933728464" fill="#af0af6" r="5"/>
<circle cx="285.9574468085106" cy="-218.29234160237078" fill="#af0af6" r="5"/>
<circle cx="296.17021276595744" cy="-249.9754049614224" fill="#af0af6" r="5"/>
<circle cx="306.3829787234043" cy="-234.98524297685344" fill="#af0af6" r="5"/>
<circle cx="316.59574468085106" cy="-259.99114578611204" fill="#af0af6" r="5"/>
<circle cx="326.8085106382979" cy="-240.9946874716672" fill="#af0af6" r="5"/>
<circle cx="337.02127659574467" cy="-229.5968124830003" fill="#af0af6" r="5"/>
<circle cx="347.2340425531915" cy="-239.75808748980018" fill="#af0af6" r="5"/>
<circle cx="357.4468085106383" cy="-262.85485249388006" fill="#af0af6" r="5"/>
</g>
</g>
<g>
<g>
<path d="M0,-134.64714 L0,-134.64714 L10.212766,-138.01651 L20.425531,-141.38588 L30.638298,-144.75525 L40.851063,-148.12462 L51.06383,-151.49399 L61.276596,-154.86336 L71.489365,-158.23273 L81.702126,-161.6021 L91.914894,-164.97147 L102.12766,-168.34084 L112.34042,-171.7102 L122.55319,-175.07957 L132.76596,-178.44894 L142.97873,-181.81831 L153.19148,-185.18768 L163.40425,-188.55705 L173.61702,-191.92642 L183.82979,-195.29579 L194.04256,-198.66516 L204.25533,-202.03453 L214.46808,-205.4039 L224.68085,-208.77327 L234.89362,-212.14264 L245.10638,-215.51201 L255.31915,-218.88138 L265.53192,-222.25075 L275.7447,-225.62012 L285.95746,-228.98949 L296.17023,-232.35886 L306.38297,-235.72823 L316.59573,-239.0976 L326.8085,-242.46696 L337.02127,-245.83633 L347.23404,-249.2057 L357.4468,-252.57507" fill="none" stroke="#87faa4" stroke-linejoin="round" stroke-width="2"/>
</g>
<g>
<circle cx="0" cy="-134.64714714714714" fill="#87faa4" r="5"/>
<circle cx="10.212765957446809" cy="-138.01651651651653" fill="#87faa4" r="5"/>
<circle cx="20.425531914893618" cy="-141.38588588588584" fill="#87faa4" r="5"/>
<circle cx="30.638297872340427" cy="-144.75525525525524" fill="#87faa4" r="5"/>
<circle cx="40.851063829787236" cy="-148.1246246246246" fill="#87faa4" r="5"/>
<circle cx="51.06382978723404" cy="-151.493993993994" fill="#87faa4" r="5"/>
<circle cx="61.276595744680854" cy="-154.86336336336336" fill="#87faa4" r="5"/>
<circle cx="71.48936170212765" cy="-158.23273273273276" fill="#87faa4" r="5"/>
<circle cx="81.70212765957447" cy="-161.60210210210207" fill="#87faa4" r="5"/>
<circle cx="91.91489361702128" cy="-164.97147147147146" fill="#87faa4" r="5"/>
<circle cx="102.12765957446808" cy="-168.34084084084083" fill="#87faa4" r="5"/>
<circle cx="112.34042553191489" cy="-171.7102102102102" fill="#87faa4" r="5"/>
<circle cx="122.55319148936171" cy="-175.0795795795796" fill="#87faa4" r="5"/>
<circle cx="132.7659574468085" cy="-178.44894894894895" fill="#87faa4" r="5"/>
<circle cx="142.9787234042553" cy="-181.8183183183183" fill="#87faa4" r="5"/>
<circle cx="153.19148936170214" cy="-185.18768768768766" fill="#87faa4" r="5"/>
<circle cx="163.40425531914894" cy="-188.55705705705705" fill="#87faa4" r="5"/>
<circle cx="173.61702127659575" cy="-191.92642642642642" fill="#87faa4" r="5"/>
<circle cx="183.82978723404256" cy="-195.2957957957958" fill="#87faa4" r="5"/>
<circle cx="194.04255319148936" cy="-198.66516516516512" fill="#87faa4" r="5"/>
<circle cx="204.25531914893617" cy="-202.03453453453452" fill="#87faa4" r="5"/>
<circle cx="214.46808510638297" cy="-205.40390390390388" fill="#87faa4" r="5"/>
<circle cx="224.68085106382978" cy="-208.77327327327325" fill="#87faa4" r="5"/>
<circle cx="234.89361702127658" cy="-212.14264264264267" fill="#87faa4" r="5"/>
<circle cx="245.10638297872342" cy="-215.512012012012" fill="#87faa4" r="5"/>
<circle cx="255.31914893617022" cy="-218.88138138138135" fill="#87faa4" r="5"/>
<circle cx="265.531914893617" cy="-222.25075075075074" fill="#87faa4" r="5"/>
<circle cx="275.74468085106383" cy="-225.6201201201201" fill="#87faa4" r="5"/>
<circle cx="285.9574468085106" cy="-228.9894894894895" fill="#87faa4" r="5"/>
<circle cx="296.17021276595744" cy="-232.3588588588588" fill="#87faa4" r="5"/>
<circle cx="306.3829787234043" cy="-235.72822822822818" fill="#87faa4" r="5"/>
<circle cx="316.59574468085106" cy="-239.0975975975976" fill="#87faa4" r="5"/>
<circle cx="326.8085106382979" cy="-242.46696696696694" fill="#87faa4" r="5"/>
<circle cx="337.02127659574467" cy="-245.83633633633636" fill="#87faa4" r="5"/>
<circle cx="347.2340425531915" cy="-249.20570570570572" fill="#87faa4" r="5"/>
<circle cx="357.4468085106383" cy="-252.57507507507506" fill="#87faa4" r="5"/>
</g>
</g>
<g>
<g>
<path d="M367.65958,-239.75809 L367.65958,-239.75809 L377.87234,-131.02232 L388.0851,-160.47266 L398.29788,-145.96748 L408.51065,-138.76012 L418.72342,-149.25995 L428.93616,-149.07133 L439.14893,-161.6135 L449.3617,-157.42361 L459.57446,-160.50331 L469.78723,-162.08427 L480,-175.21445" fill="none" stroke="#ff00a2" stroke-linejoin="round" stroke-width="2"/>
</g>
<g>
<circle cx="367.6595744680851" cy="-239.75808748980018" fill="#ff00a2" r="5"/>
<circle cx="377.8723404255319" cy="-131.0223162831483" fill="#ff00a2" r="5"/>
<circle cx="388.0851063829787" cy="-160.47265018240512" fill="#ff00a2" r="5"/>
<circle cx="398.29787234042556" cy="-145.96748692882244" fill="#ff00a2" r="5"/>
<circle cx="408.51063829787233" cy="-138.7601164206895" fill="#ff00a2" r="5"/>
<circle cx="418.72340425531917" cy="-149.25994409117482" fill="#ff00a2" r="5"/>
<circle cx="428.93617021276594" cy="-149.07133922479315" fill="#ff00a2" r="5"/>
<circle cx="439.1489361702128" cy="-161.61349232738792" fill="#ff00a2" r="5"/>
<circle cx="449.36170212765956" cy="-157.423606979792" fill="#ff00a2" r="5"/>
<circle cx="459.5744680851064" cy="-160.5033176646785" fill="#ff00a2" r="5"/>
<circle cx="469.78723404255317" cy="-162.08427032333438" fill="#ff00a2" r="5"/>
<circle cx="480" cy="-175.2144465026375" fill="#ff00a2" r="5"/>
</g>
</g>
<g>
<g>
<line stroke="black" stroke-width="1" x1="0" x2="0" y1="0" y2="10"/>
<line stroke="black" stroke-width="1" x1="102.12765957446808" x2="102.12765957446808" y1="0" y2="10"/>
<line stroke="black" stroke-width="1" x1="204.25531914893617" x2="204.25531914893617" y1="0" y2="10"/>
<line stroke="black" stroke-width="1" x1="306.3829787234043" x2="306.3829787234043" y1="0" y2="10"/>
<line stroke="black" stroke-width="1" x1="408.51063829787233" x2="408.51063829787233" y1="0" y2="10"/>
</g>
<line stroke="black" stroke-width="1" x1="0" x2="480" y1="0" y2="0"/>
<g>
<text font-size="12" text-anchor="middle" x="0" y="20">
1
</text>
<text font-size="12" text-anchor="middle" x="102.12765957446808" y="20">
11
</text>
<text font-size="12" text-anchor="middle" x="204.25531914893617" y="20">
21
</text>
<text font-size="12" text-anchor="middle" x="306.3829787234043" y="20">
31
</text>
<text font-size="12" text-anchor="middle" x="408.51063829787233" y="20">
41
</text>
</g>
<text font-size="12" text-anchor="middle" x="240" y="30">

</text>
</g>
<g>
<g>
<line stroke="black" stroke-width="1" x1="0" x2="-10" y1="0" y2="0"/>
<line stroke="black" stroke-width="1" x1="0" x2="-10" y1="-85" y2="-85"/>
<line stroke="black" stroke-width="1" x1="0" x2="-10" y1="-170" y2="-170"/>
<line stroke="black" stroke-width="1" x1="0" x2="-10" y1="-255" y2="-255"/>
<line stroke="black" stroke-width="1" x1="0" x2="-10" y1="-340" y2="-340"/>
</g>
<line stroke="black" stroke-width="1" x1="0" x2="0" y1="0" y2="-340"/>
<g>
<text dominant-baseline="middle" font-size="12" text-anchor="end" x="-15" y="0">
50
</text>
<text dominant-baseline="middle" font-size="12" text-anchor="end" x="-15" y="-85">
70
</text>
<text dominant-baseline="middle" font-size="12" text-anchor="end" x="-15" y="-170">
90
</text>
<text dominant-baseline="middle" font-size="12" text-anchor="end" x="-15" y="-255">
110
</text>
<text dominant-baseline="middle" font-size="12" text-anchor="end" x="-15" y="-340">
130
</text>
</g>
<text font-size="12" text-anchor="middle" transform="rotate(-90 -36 -170)" x="-36" y="-182">

</text>
</g>
</g>
</svg>