<svg viewBox="0 0 600 400" xmlns="http://www.w3.org/2000/svg">
<g transform="translate(72, 364)">
<g>
<g>
<path d="M0,-199.32834 L0,-199.32834 L10.212766,-159.46266 L20.425531,-119.597 L30.638298,-79.73133 L40.851063,-39.865665 L51.06383,-119.597 L61.276596,-79.73133 L71.489365,-199.32834 L81.702126,-318.92532 L91.914894,-239.194 L102.12766,-279.05966 L112.34042,-279.05966 L122.55319,-159.46266 L132.76596,-119.597 L142.97873,-199.32834 L153.19148,-119.597 L163.40425,-79.73133 L173.61702,-39.865665 L183.82979,0 L194.04256,-119.597 L204.25533,-159.46266 L214.46808,-199.32834 L224.68085,-279.05966 L234.89362,-239.194 L245.10638,-119.597 L255.31915,-159.46266 L265.53192,-199.32834 L275.7447,-239.194 L285.95746,-279.05966 L296.17023,-199.32834 L306.38297,-279.05966 L316.59573,-199.32834 L326.8085,-199.32834 L337.02127,-239.194 L347.23404,-279.05966 L357.4468,-318.92532" fill="none" stroke="#000000" stroke-linejoin="round" stroke-width="2"/>
</g>
<g>
<circle cx="0" cy="-199.3283360864101" fill="#000000" r="5"/>
<circle cx="10.212765957446809" cy="-159.46266886912807" fill="#000000" r="5"/>
<circle cx="20.425531914893618" cy="-119.59700165184606" fill="#000000" r="5"/>
<circle cx="30.638297872340427" cy="-79.73133443456403" fill="#000000" r="5"/>
<circle cx="40.851063829787236" cy="-39.86566721728202" fill="#000000" r="5"/>
<circle cx="51.06382978723404" cy="-119.59700165184606" fill="#000000" r="5"/>
<circle cx="61.276595744680854" cy="-79.73133443456403" fill="#000000" r="5"/>
<circle cx="71.48936170212765" cy="-199.3283360864101" fill="#000000" r="5"/>
<circle cx="81.70212765957447" cy="-318.92533773825613" fill="#000000" r="5"/>
<circle cx="91.91489361702128" cy="-239.1940033036921" fill="#000000" r="5"/>
<circle cx="102.12765957446808" cy="-279.0596705209741" fill="#000000" r="5"/>
<circle cx="112.34042553191489" cy="-279.0596705209741" fill="#000000" r="5"/>
<circle cx="122.55319148936171" cy="-159.46266886912807" fill="#000000" r="5"/>
<circle cx="132.7659574468085" cy="-119.59700165184606" fill="#000000" r="5"/>
<circle cx="142.9787234042553" cy="-199.3283360864101" fill="#000000" r="5"/>
<circle cx="153.19148936170214" cy="-119.59700165184606" fill="#000000" r="5"/>
<circle cx="163.40425531914894" cy="-79.73133443456403" fill="#000000" r="5"/>
<circle cx="173.61702127659575" cy="-39.86566721728202" fill="#000000" r="5"/>
<circle cx="183.82978723404256" cy="0" fill="#000000" r="5"/>
<circle cx="194.04255319148936" cy="-119.59700165184606" fill="#000000" r="5"/>
<circle cx="204.25531914893617" cy="-159.46266886912807" fill="#000000" r="5"/>
<circle cx="214.46808510638297" cy="-199.3283360864101" fill="#000000" r="5"/>
<circle cx="224.68085106382978" cy="-279.0596705209741" fill="#000000" r="5"/>
<circle cx="234.89361702127658" cy="-239.1940033036921" fill="#000000" r="5"/>
<circle cx="245.10638297872342" cy="-119.59700165184606" fill="#000000" r="5"/>
<circle cx="255.31914893617022" cy="-159.46266886912807" fill="#000000" r="5"/>
<circle cx="265.531914893617" cy="-199.3283360864101" fill="#000000" r="5"/>
<circle cx="275.74468085106383" cy="-239.1940033036921" fill="#000000" r="5"/>
<circle cx="285.9574468085106" cy="-279.0596705209741" fill="#000000" r="5"/>
<circle cx="296.17021276595744" cy="-199.3283360864101" fill="#000000" r="5"/>
<circle cx="306.3829787234043" cy="-279.0596705209741" fill="#000000" r="5"/>
<circle cx="316.59574468085106" cy="-199.3283360864101" fill="#000000" r="5"/>
<circle cx="326.8085106382979" cy="-199.3283360864101" fill="#000000" r="5"/>
<circle cx="337.02127659574467" cy="-239.1940033036921" fill="#000000" r="5"/>
<circle cx="347.2340425531915" cy="-279.0596705209741" fill="#000000" r="5"/>
<circle cx="357.4468085106383" cy="-318.92533773825613" fill="#000000" r="5"/>
</g>
</g>
<g>
<g>
<path d="M10.212766,-199.32834 L10.212766,-199.32834 L20.425531,-183.38206 L30.638298,-157.86804 L40.851063,-126.61336 L51.06383,-91.91428 L61.276596,-102.98737 L71.489365,-93.68496 L81.702126,-135.9423 L91.914894,-209.13551 L102.12766,-221.15892 L112.34042,-244.31921 L122.55319,-258.2154 L132.76596,-218.71431 L142.97873,-179.06738 L153.19148,-187.17177 L163.40425,-160.14186 L173.61702,-127.977646 L183.82979,-92.73286 L194.04256,-55.639713 L204.25533,-81.222626 L214.46808,-112.51865 L224.68085,-147.24252 L234.89362,-199.96938 L245.10638,-215.65923 L255.31915,-177.23434 L265.53192,-170.12567 L275.7447,-181.80673 L285.95746,-204.76164 L296.17023,-234.48085 L306.38297,-220.41985 L316.59573,-243.87578 L326.8085,-226.0568 L337.02127,-215.36542 L347.23404,-224.89685 L357.4468,-246.56198" fill="none" stroke="#af0af6" stroke-linejoin="round" stroke-width="2"/>
</g>
<g>
<circle cx="10.212765957446809" cy="-199.3283360864101" fill="#af0af6" r="5"/>
<circle cx="20.425531914893618" cy="-183.3820691994973" fill="#af0af6" r="5"/>
<circle cx="30.638297872340427" cy="-157.8680421804368" fill="#af0af6" r="5"/>
<circle cx="40.851063829787236" cy="-126.61335908208767" fill="#af0af6" r="5"/>
<circle cx="51.06382978723404" cy="-91.91428233616536" fill="#af0af6" r="5"/>
<circle cx="61.276595744680854" cy="-102.98737006243765" fill="#af0af6" r="5"/>
<circle cx="71.48936170212765" cy="-93.6849558112882" fill="#af0af6" r="5"/>
<circle cx="81.70212765957447" cy="-135.94230792133695" fill="#af0af6" r="5"/>
<circle cx="91.91489361702128" cy="-209.13551984810465" fill="#af0af6" r="5"/>
<circle cx="102.12765957446808" cy="-221.1589132303396" fill="#af0af6" r="5"/>
<circle cx="112.34042553191489" cy="-244.31921614659345" fill="#af0af6" r="5"/>
<circle cx="122.55319148936171" cy="-258.2153978963457" fill="#af0af6" r="5"/>
<circle cx="132.7659574468085" cy="-218.7143062854586" fill="#af0af6" r="5"/>
<circle cx="142.9787234042553" cy="-179.06738443201357" fill="#af0af6" r="5"/>
<circle cx="153.19148936170214" cy="-187.17176509377217" fill="#af0af6" r="5"/>
<circle cx="163.40425531914894" cy="-160.1418597170017" fill="#af0af6" r="5"/>
<circle cx="173.61702127659575" cy="-127.97764960402661" fill="#af0af6" r="5"/>
<circle cx="183.82978723404256" cy="-92.73285664932874" fill="#af0af6" r="5"/>
<circle cx="194.04255319148936" cy="-55.63971398959725" fill="#af0af6" r="5"/>
<circle cx="204.25531914893617" cy="-81.22262905449676" fill="#af0af6" r="5"/>
<circle cx="214.46808510638297" cy="-112.51864498034928" fill="#af0af6" r="5"/>
<circle cx="224.68085106382978" cy="-147.24252142277362" fill="#af0af6" r="5"/>
<circle cx="234.89361702127658" cy="-199.96938106205383" fill="#af0af6" r="5"/>
<circle cx="245.10638297872342" cy="-215.65922995870912" fill="#af0af6" r="5"/>
<circle cx="255.31914893617022" cy="-177.23433863596387" fill="#af0af6" r="5"/>
<circle cx="265.531914893617" cy="-170.1256707292295" fill="#af0af6" r="5"/>
<circle cx="275.74468085106383" cy="-181.80673687210177" fill="#af0af6" r="5"/>
<circle cx="285.9574468085106" cy="-204.7616434447379" fill="#af0af6" r="5"/>
<circle cx="296.17021276595744" cy="-234.48085427523236" fill="#af0af6" r="5"/>
<circle cx="306.3829787234043" cy="-220.41984699970345" fill="#af0af6" r="5"/>
<circle cx="316.59574468085106" cy="-243.87577640821172" fill="#af0af6" r="5"/>
<circle cx="326.8085106382979" cy="-226.05680027949103" fill="#af0af6" r="5"/>
<circle cx="337.02127659574467" cy="-215.36541460225865" fill="#af0af6" r="5"/>
<circle cx="347.2340425531915" cy="-224.896850082832" fill="#af0af6" r="5"/>
<circle cx="357.4468085106383" cy="-246.56197825808883" fill="#af0af6" r="5"/>
</g>
</g>
<g>
<g>
<path d="M0,-126.30114 L0,-126.30114 L10.212766,-129.46165 L20.425531,-132.62218 L30.638298,-135.7827 L40.851063,-138.94322 L51.06383,-142.10374 L61.276596,-145.26427 L71.489365,-148.42479 L81.702126,-151.58531 L91.914894,-154.74583 L102.12766,-157.90636 L112.34042,-161.06688 L122.55319,-164.2274 L132.76596,-167.38791 L142.97873,-170.54843 L153.19148,-173.70895 L163.40425,-176.86948 L173.61702,-180.03 L183.82979,-183.19052 L194.04256,-186.35104 L204.25533,-189.51157 L214.46808,-192.67209 L224.68085,-195.83261 L234.89362,-198.99313 L245.10638,-202.15366 L255.31915,-205.31418 L265.53192,-208.4747 L275.7447,-211.63521 L285.95746,-214.79573 L296.17023,-217.95625 L306.38297,-221.11678 L316.59573,-224.2773 L326.8085,-227.43782 L337.02127,-230.59834 L347.23404,-233.75887 L357.4468,-236.91939" fill="none" stroke="#87faa4" stroke-linejoin="round" stroke-width="2"/>
</g>
<g>
<circle cx="0" cy="-126.30113788057817" fill="#87faa4" r="5"/>
<circle cx="10.212765957446809" cy="-129.46165924555189" fill="#87faa4" r="5"/>
<circle cx="20.425531914893618" cy="-132.62218061052556" fill="#87faa4" r="5"/>
<circle cx="30.638297872340427" cy="-135.78270197549926" fill="#87faa4" r="5"/>
<circle cx="40.851063829787236" cy="-138.943223340473" fill="#87faa4" r="5"/>
<circle cx="51.06382978723404" cy="-142.1037447054467" fill="#87faa4" r="5"/>
<circle cx="61.276595744680854" cy="-145.26426607042043" fill="#87faa4" r="5"/>
<circle cx="71.48936170212765" cy="-148.42478743539417" fill="#87faa4" r="5"/>
<circle cx="81.70212765957447" cy="-151.5853088003678" fill="#87faa4" r="5"/>
<circle cx="91.91489361702128" cy="-154.74583016534154" fill="#87faa4" r="5"/>
<circle cx="102.12765957446808" cy="-157.90635153031528" fill="#87faa4" r="5"/>
<circle cx="112.34042553191489" cy="-161.06687289528895" fill="#87faa4" r="5"/>
<circle cx="122.55319148936171" cy="-164.22739426026268" fill="#87faa4" r="5"/>
<circle cx="132.7659574468085" cy="-167.38791562523642" fill="#87faa4" r="5"/>
<circle cx="142.9787234042553" cy="-170.54843699021006" fill="#87faa4" r="5"/>
<circle cx="153.19148936170214" cy="-173.7089583551838" fill="#87faa4" r="5"/>
<circle cx="163.40425531914894" cy="-176.8694797201575" fill="#87faa4" r="5"/>
<circle cx="173.61702127659575" cy="-180.03000108513123" fill="#87faa4" r="5"/>
<circle cx="183.82978723404256" cy="-183.19052245010496" fill="#87faa4" r="5"/>
<circle cx="194.04255319148936" cy="-186.3510438150786" fill="#87faa4" r="5"/>
<circle cx="204.25531914893617" cy="-189.51156518005234" fill="#87faa4" r="5"/>
<circle cx="214.46808510638297" cy="-192.67208654502605" fill="#87faa4" r="5"/>
<circle cx="224.68085106382978" cy="-195.83260790999975" fill="#87faa4" r="5"/>
<circle cx="234.89361702127658" cy="-198.9931292749735" fill="#87faa4" r="5"/>
<circle cx="245.10638297872342" cy="-202.15365063994722" fill="#87faa4" r="5"/>
<circle cx="255.31914893617022" cy="-205.31417200492086" fill="#87faa4" r="5"/>
<circle cx="265.531914893617" cy="-208.47469336989462" fill="#87faa4" r="5"/>
<circle cx="275.74468085106383" cy="-211.6352147348683" fill="#87faa4" r="5"/>
<circle cx="285.9574468085106" cy="-214.79573609984206" fill="#87faa4" r="5"/>
<circle cx="296.17021276595744" cy="-217.9562574648157" fill="#87faa4" r="5"/>
<circle cx="306.3829787234043" cy="-221.1167788297894" fill="#87faa4" r="5"/>
<circle cx="316.59574468085106" cy="-224.27730019476317" fill="#87faa4" r="5"/>
<circle cx="326.8085106382979" cy="-227.43782155973685" fill="#87faa4" r="5"/>
<circle cx="337.02127659574467" cy="-230.5983429247106" fill="#87faa4" r="5"/>
<circle cx="347.2340425531915" cy="-233.7588642896843" fill="#87faa4" r="5"/>
<circle cx="357.4468085106383" cy="-236.91938565465802" fill="#87faa4" r="5"/>
</g>
</g>
<g>
<g>
<path d="M367.65958,-224.89685 L367.65958,-224.89685 L377.87234,-233.44191 L388.0851,-340 L398.29788,-271.9747 L408.51065,-234.78236 L418.72342,-269.89624 L428.93616,-257.1552 L439.14893,-302.93765 L449.3617,-271.04776 L459.57446,-273.23135 L469.78723,-267.7686 L480,-308.63995" fill="none" stroke="#ff00a2" stroke-linejoin="round" stroke-width="2"/>
</g>
<g>
<circle cx="367.6595744680851" cy="-224.896850082832" fill="#ff00a2" r="5"/>
<circle cx="377.8723404255319" cy="-233.4419070792818" fill="#ff00a2" r="5"/>
<circle cx="388.0851063829787" cy="-340" fill="#ff00a2" r="5"/>
<circle cx="398.29787234042556" cy="-271.97469554749364" fill="#ff00a2" r="5"/>
<circle cx="408.51063829787233" cy="-234.7823636359535" fill="#ff00a2" r="5"/>
<circle cx="418.72340425531917" cy="-269.89624147038165" fill="#ff00a2" r="5"/>
<circle cx="428.93617021276594" cy="-257.15520583715335" fill="#ff00a2" r="5"/>
<circle cx="439.1489361702128" cy="-302.9376646699092" fill="#ff00a2" r="5"/>
<circle cx="449.36170212765956" cy="-271.04776659454353" fill="#ff00a2" r="5"/>
<circle cx="459.5744680851064" cy="-273.23136621897527" fill="#ff00a2" r="5"/>
<circle cx="469.78723404255317" cy="-267.76859428442924" fill="#ff00a2" r="5"/>
<circle cx="480" cy="-308.6399518284495" fill="#ff00a2" r="5"/>
</g>
</g>
<g>
<g>
<line stroke="black" stroke-width="1" x1="0" x2="0" y1="0" y2="10"/>
<line stroke="black" stroke-width="1" x1="102.12765957446808" x2="102.12765957446808" y1="0" y2="10"/>
<line stroke="black" stroke-width="1" x1="204.25531914893617" x2="204.25531914893617" y1="0" y2="10"/>
<line stroke="black" stroke-width="1" x1="306.3829787234043" x2="306.3829787234043" y1="0" y2="10"/>
<line stroke="black" stroke-width="1" x1="408.51063829787233" x2="408.51063829787233" y1="0" y2="10"/>
</g>
<line stroke="black" stroke-width="1" x1="0" x2="480" y1="0" y2="0"/>
<g>
<text font-size="12" text-anchor="middle" x="0" y="20">
1
</text>
<text font-size="12" text-anchor="middle" x="102.12765957446808" y="20">
11
</text>
<text font-size="12" text-anchor="middle" x="204.25531914893617" y="20">
21
</text>
<text font-size="12" text-anchor="middle" x="306.3829787234043" y="20">
31
</text>
<text font-size="12" text-anchor="middle" x="408.51063829787233" y="20">
41
</text>
</g>
<text font-size="12" text-anchor="middle" x="240" y="30">

</text>
</g>
<g>
<g>
<line stroke="black" stroke-width="1" x1="0" x2="-10" y1="0" y2="0"/>
<line stroke="black" stroke-width="1" x1="0" x2="-10" y1="-79.73133443456403" y2="-79.73133443456403"/>
<line stroke="black" stroke-width="1" x1="0" x2="-10" y1="-159.46266886912807" y2="-159.46266886912807"/>
<line stroke="black" stroke-width="1" x1="0" x2="-10" y1="-239.1940033036921" y2="-239.1940033036921"/>
<line stroke="black" stroke-width="1" x1="0" x2="-10" y1="-318.92533773825613" y2="-318.92533773825613"/>
</g>
<line stroke="black" stroke-width="1" x1="0" x2="0" y1="0" y2="-340"/>
<g>
<text dominant-baseline="middle" font-size="12" text-anchor="end" x="-15" y="0">
50
</text>
<text dominant-baseline="middle" font-size="12" text-anchor="end" x="-15" y="-79.73133443456403">
70
</text>
<text dominant-baseline="middle" font-size="12" text-anchor="end" x="-15" y="-159.46266886912807">
90
</text>
<text dominant-baseline="middle" font-size="12" text-anchor="end" x="-15" y="-239.1940033036921">
110
</text>
<text dominant-baseline="middle" font-size="12" text-anchor="end" x="-15" y="-318.92533773825613">
130
</text>
</g>
<text font-size="12" text-anchor="middle" transform="rotate(-90 -36 -170)" x="-36" y="-182">

</text>
</g>
</g>
</svg>