<svg viewBox="0 0 600 400" xmlns="http://www.w3.org/2000/svg">
<g transform="translate(72, 364)">
<g>
<g>
<path d="M0,-1.2638866 L0,-1.2638866 L10.212766,-9.280539 L20.425531,-17.29719 L30.638298,-25.31384 L40.851063,-33.330494 L51.06383,-41.347145 L61.276596,-49.363796 L71.489365,-57.380447 L81.702126,-65.3971 L91.914894,-73.41375 L102.12766,-81.430405 L112.34042,-89.44705 L122.55319,-73.41375 L132.76596,-105.48036 L142.97873,-113.49701 L153.19148,-121.513664 L163.40425,-129.53032 L173.61702,-137.54697 L183.82979,-145.56361 L194.04256,-153.58028 L204.25533,-161.59692 L214.46808,-169.61357 L224.68085,-177.63022 L234.89362,-185.64688 L245.10638,-193.66353 L255.31915,-201.68018 L265.53192,-209.69684 L275.7447,-217.71349 L285.95746,-225.73013 L296.17023,-233.74678 L306.38297,-241.76344 L316.59573,-249.78009 L326.8085,-257.79675 L337.02127,-265.8134 L347.23404,-273.83005 L357.4468,-281.8467" fill="none" stroke="#000000" stroke-linejoin="round" stroke-width="2"/>
</g>
<g>
<circle cx="0" cy="-1.263886531236336" fill="#000000" r="5"/>
<circle cx="10.212765957446809" cy="-9.280538243649616" fill="#000000" r="5"/>
<circle cx="20.425531914893618" cy="-17.297189956062898" fill="#000000" r="5"/>
<circle cx="30.638297872340427" cy="-25.313841668476176" fill="#000000" r="5"/>
<circle cx="40.851063829787236" cy="-33.33049338088946" fill="#000000" r="5"/>
<circle cx="51.06382978723404" cy="-41.347145093302736" fill="#000000" r="5"/>
<circle cx="61.276595744680854" cy="-49.363796805716014" fill="#000000" r="5"/>
<circle cx="71.48936170212765" cy="-57.3804485181293" fill="#000000" r="5"/>
<circle cx="81.70212765957447" cy="-65.39710023054258" fill="#000000" r="5"/>
<circle cx="91.91489361702128" cy="-73.41375194295586" fill="#000000" r="5"/>
<circle cx="102.12765957446808" cy="-81.43040365536913" fill="#000000" r="5"/>
<circle cx="112.34042553191489" cy="-89.44705536778241" fill="#000000" r="5"/>
<circle cx="122.55319148936171" cy="-73.41375194295586" fill="#000000" r="5"/>
<circle cx="132.7659574468085" cy="-105.48035879260898" fill="#000000" r="5"/>
<circle cx="142.9787234042553" cy="-113.49701050502227" fill="#000000" r="5"/>
<circle cx="153.19148936170214" cy="-121.51366221743555" fill="#000000" r="5"/>
<circle cx="163.40425531914894" cy="-129.53031392984883" fill="#000000" r="5"/>
<circle cx="173.61702127659575" cy="-137.5469656422621" fill="#000000" r="5"/>
<circle cx="183.82978723404256" cy="-145.5636173546754" fill="#000000" r="5"/>
<circle cx="194.04255319148936" cy="-153.58026906708866" fill="#000000" r="5"/>
<circle cx="204.25531914893617" cy="-161.59692077950197" fill="#000000" r="5"/>
<circle cx="214.46808510638297" cy="-169.61357249191525" fill="#000000" r="5"/>
<circle cx="224.68085106382978" cy="-177.63022420432853" fill="#000000" r="5"/>
<circle cx="234.89361702127658" cy="-185.6468759167418" fill="#000000" r="5"/>
<circle cx="245.10638297872342" cy="-193.66352762915508" fill="#000000" r="5"/>
<circle cx="255.31914893617022" cy="-201.68017934156836" fill="#000000" r="5"/>
<circle cx="265.531914893617" cy="-209.69683105398164" fill="#000000" r="5"/>
<circle cx="275.74468085106383" cy="-217.71348276639492" fill="#000000" r="5"/>
<circle cx="285.9574468085106" cy="-225.7301344788082" fill="#000000" r="5"/>
<circle cx="296.17021276595744" cy="-233.7467861912215" fill="#000000" r="5"/>
<circle cx="306.3829787234043" cy="-241.76343790363478" fill="#000000" r="5"/>
<circle cx="316.59574468085106" cy="-249.78008961604806" fill="#000000" r="5"/>
<circle cx="326.8085106382979" cy="-257.79674132846134" fill="#000000" r="5"/>
<circle cx="337.02127659574467" cy="-265.8133930408746" fill="#000000" r="5"/>
<circle cx="347.2340425531915" cy="-273.8300447532879" fill="#000000" r="5"/>
<circle cx="357.4468085106383" cy="-281.84669646570114" fill="#000000" r="5"/>
</g>
</g>
<g>
<g>
<path d="M10.212766,-1.2638866 L10.212766,-1.2638866 L20.425531,-4.470547 L30.638298,-9.601204 L40.851063,-15.886259 L51.06383,-22.863953 L61.276596,-30.257229 L71.489365,-37.899857 L81.702126,-45.692093 L91.914894,-53.574097 L102.12766,-61.50996 L112.34042,-69.478134 L122.55319,-77.465706 L132.76596,-75.844925 L142.97873,-87.6991 L153.19148,-98.018265 L163.40425,-107.41642 L173.61702,-116.26198 L183.82979,-124.77597 L194.04256,-133.09103 L204.25533,-141.28673 L214.46808,-149.4108 L224.68085,-157.49191 L234.89362,-165.54724 L245.10638,-173.5871 L255.31915,-181.61766 L265.53192,-189.64267 L275.7447,-197.66434 L285.95746,-205.68399 L296.17023,-213.70245 L306.38297,-221.72018 L316.59573,-229.73749 L326.8085,-237.75453 L337.02127,-245.77141 L347.23404,-253.78821 L357.4468,-261.80493" fill="none" stroke="#af0af6" stroke-linejoin="round" stroke-width="2"/>
</g>
<g>
<circle cx="10.212765957446809" cy="-1.263886531236336" fill="#af0af6" r="5"/>
<circle cx="20.425531914893618" cy="-4.470547216201648" fill="#af0af6" r="5"/>
<circle cx="30.638297872340427" cy="-9.601204312146146" fill="#af0af6" r="5"/>
<circle cx="40.851063829787236" cy="-15.88625925467816" fill="#af0af6" r="5"/>
<circle cx="51.06382978723404" cy="-22.86395290516268" fill="#af0af6" r="5"/>
<circle cx="61.276595744680854" cy="-30.2572297804187" fill="#af0af6" r="5"/>
<circle cx="71.48936170212765" cy="-37.899856590537624" fill="#af0af6" r="5"/>
<circle cx="81.70212765957447" cy="-45.6920933615743" fill="#af0af6" r="5"/>
<circle cx="91.91489361702128" cy="-53.574096109161594" fill="#af0af6" r="5"/>
<circle cx="102.12765957446808" cy="-61.509958442679306" fill="#af0af6" r="5"/>
<circle cx="112.34042553191489" cy="-69.47813652775524" fill="#af0af6" r="5"/>
<circle cx="122.55319148936171" cy="-77.4657040637661" fill="#af0af6" r="5"/>
<circle cx="132.7659574468085" cy="-75.844923215442" fill="#af0af6" r="5"/>
<circle cx="142.9787234042553" cy="-87.69909744630878" fill="#af0af6" r="5"/>
<circle cx="153.19148936170214" cy="-98.01826266979418" fill="#af0af6" r="5"/>
<circle cx="163.40425531914894" cy="-107.41642248885074" fill="#af0af6" r="5"/>
<circle cx="173.61702127659575" cy="-116.26197906524997" fill="#af0af6" r="5"/>
<circle cx="183.82978723404256" cy="-124.77597369605483" fill="#af0af6" r="5"/>
<circle cx="194.04255319148936" cy="-133.09103115950305" fill="#af0af6" r="5"/>
<circle cx="204.25531914893617" cy="-141.28672632253728" fill="#af0af6" r="5"/>
<circle cx="214.46808510638297" cy="-149.41080410532314" fill="#af0af6" r="5"/>
<circle cx="224.68085106382978" cy="-157.49191145995997" fill="#af0af6" r="5"/>
<circle cx="234.89361702127658" cy="-165.54723655770738" fill="#af0af6" r="5"/>
<circle cx="245.10638297872342" cy="-173.58709230132112" fill="#af0af6" r="5"/>
<circle cx="255.31914893617022" cy="-181.6176664324547" fill="#af0af6" r="5"/>
<circle cx="265.531914893617" cy="-189.64267159610014" fill="#af0af6" r="5"/>
<circle cx="275.74468085106383" cy="-197.66433537925272" fill="#af0af6" r="5"/>
<circle cx="285.9574468085106" cy="-205.6839943341096" fill="#af0af6" r="5"/>
<circle cx="296.17021276595744" cy="-213.70245039198903" fill="#af0af6" r="5"/>
<circle cx="306.3829787234043" cy="-221.72018471168198" fill="#af0af6" r="5"/>
<circle cx="316.59574468085106" cy="-229.73748598846308" fill="#af0af6" r="5"/>
<circle cx="326.8085106382979" cy="-237.75452743949705" fill="#af0af6" r="5"/>
<circle cx="337.02127659574467" cy="-245.77141299508273" fill="#af0af6" r="5"/>
<circle cx="347.2340425531915" cy="-253.78820501339942" fill="#af0af6" r="5"/>
<circle cx="357.4468085106383" cy="-261.80494090935474" fill="#af0af6" r="5"/>
</g>
</g>
<g>
<g>
<path d="M0,0 L0,0 L10.212766,-8.050699 L20.425531,-16.101398 L30.638298,-24.152098 L40.851063,-32.202797 L51.06383,-40.253498 L61.276596,-48.304195 L71.489365,-56.354897 L81.702126,-64.405594 L91.914894,-72.45629 L102.12766,-80.506996 L112.34042,-88.55769 L122.55319,-96.60839 L132.76596,-104.65909 L142.97873,-112.70979 L153.19148,-120.76049 L163.40425,-128.81119 L173.61702,-136.8619 L183.82979,-144.91258 L194.04256,-152.96329 L204.25533,-161.01399 L214.46808,-169.06468 L224.68085,-177.11539 L234.89362,-185.16608 L245.10638,-193.21678 L255.31915,-201.26749 L265.53192,-209.31818 L275.7447,-217.36888 L285.95746,-225.41959 L296.17023,-233.47028 L306.38297,-241.52098 L316.59573,-249.57167 L326.8085,-257.62238 L337.02127,-265.67307 L347.23404,-273.7238 L357.4468,-281.77448" fill="none" stroke="#87faa4" stroke-linejoin="round" stroke-width="2"/>
</g>
<g>
<circle cx="0" cy="0" fill="#87faa4" r="5"/>
<circle cx="10.212765957446809" cy="-8.050699267948625" fill="#87faa4" r="5"/>
<circle cx="20.425531914893618" cy="-16.101398535897253" fill="#87faa4" r="5"/>
<circle cx="30.638297872340427" cy="-24.15209780384588" fill="#87faa4" r="5"/>
<circle cx="40.851063829787236" cy="-32.20279707179451" fill="#87faa4" r="5"/>
<circle cx="51.06382978723404" cy="-40.25349633974313" fill="#87faa4" r="5"/>
<circle cx="61.276595744680854" cy="-48.304195607691746" fill="#87faa4" r="5"/>
<circle cx="71.48936170212765" cy="-56.35489487564038" fill="#87faa4" r="5"/>
<circle cx="81.70212765957447" cy="-64.40559414358901" fill="#87faa4" r="5"/>
<circle cx="91.91489361702128" cy="-72.45629341153763" fill="#87faa4" r="5"/>
<circle cx="102.12765957446808" cy="-80.50699267948625" fill="#87faa4" r="5"/>
<circle cx="112.34042553191489" cy="-88.55769194743488" fill="#87faa4" r="5"/>
<circle cx="122.55319148936171" cy="-96.60839121538352" fill="#87faa4" r="5"/>
<circle cx="132.7659574468085" cy="-104.65909048333215" fill="#87faa4" r="5"/>
<circle cx="142.9787234042553" cy="-112.70978975128078" fill="#87faa4" r="5"/>
<circle cx="153.19148936170214" cy="-120.76048901922941" fill="#87faa4" r="5"/>
<circle cx="163.40425531914894" cy="-128.81118828717806" fill="#87faa4" r="5"/>
<circle cx="173.61702127659575" cy="-136.86188755512669" fill="#87faa4" r="5"/>
<circle cx="183.82978723404256" cy="-144.9125868230753" fill="#87faa4" r="5"/>
<circle cx="194.04255319148936" cy="-152.96328609102392" fill="#87faa4" r="5"/>
<circle cx="204.25531914893617" cy="-161.01398535897258" fill="#87faa4" r="5"/>
<circle cx="214.46808510638297" cy="-169.06468462692115" fill="#87faa4" r="5"/>
<circle cx="224.68085106382978" cy="-177.11538389486978" fill="#87faa4" r="5"/>
<circle cx="234.89361702127658" cy="-185.16608316281844" fill="#87faa4" r="5"/>
<circle cx="245.10638297872342" cy="-193.21678243076704" fill="#87faa4" r="5"/>
<circle cx="255.31914893617022" cy="-201.26748169871567" fill="#87faa4" r="5"/>
<circle cx="265.531914893617" cy="-209.3181809666643" fill="#87faa4" r="5"/>
<circle cx="275.74468085106383" cy="-217.36888023461287" fill="#87faa4" r="5"/>
<circle cx="285.9574468085106" cy="-225.41957950256153" fill="#87faa4" r="5"/>
<circle cx="296.17021276595744" cy="-233.47027877051013" fill="#87faa4" r="5"/>
<circle cx="306.3829787234043" cy="-241.5209780384588" fill="#87faa4" r="5"/>
<circle cx="316.59574468085106" cy="-249.57167730640742" fill="#87faa4" r="5"/>
<circle cx="326.8085106382979" cy="-257.62237657435605" fill="#87faa4" r="5"/>
<circle cx="337.02127659574467" cy="-265.6730758423047" fill="#87faa4" r="5"/>
<circle cx="347.2340425531915" cy="-273.7237751102533" fill="#87faa4" r="5"/>
<circle cx="357.4468085106383" cy="-281.77447437820194" fill="#87faa4" r="5"/>
</g>
</g>
<g>
<g>
<path d="M367.65958,-253.78821 L367.65958,-253.78821 L377.87234,-336.27194 L388.0851,-237.80174 L398.29788,-267.5599 L408.51065,-280.60364 L418.72342,-290.441 L428.93616,-299.23926 L439.14893,-307.62225 L449.3617,-315.8174 L459.57446,-323.9198 L469.78723,-331.97336 L480,-340" fill="none" stroke="#ff00a2" stroke-linejoin="round" stroke-width="2"/>
</g>
<g>
<circle cx="367.6595744680851" cy="-253.78820501339942" fill="#ff00a2" r="5"/>
<circle cx="377.8723404255319" cy="-336.2719366316629" fill="#ff00a2" r="5"/>
<circle cx="388.0851063829787" cy="-237.8017418481142" fill="#ff00a2" r="5"/>
<circle cx="398.29787234042556" cy="-267.5599115993236" fill="#ff00a2" r="5"/>
<circle cx="408.51063829787233" cy="-280.60364603334597" fill="#ff00a2" r="5"/>
<circle cx="418.72340425531917" cy="-290.44099938148054" fill="#ff00a2" r="5"/>
<circle cx="428.93617021276594" cy="-299.23927229323124" fill="#ff00a2" r="5"/>
<circle cx="439.1489361702128" cy="-307.6222640710939" fill="#ff00a2" r="5"/>
<circle cx="449.36170212765956" cy="-315.8174109571173" fill="#ff00a2" r="5"/>
<circle cx="459.5744680851064" cy="-323.9198089218318" fill="#ff00a2" r="5"/>
<circle cx="469.78723404255317" cy="-331.9733668274189" fill="#ff00a2" r="5"/>
<circle cx="480" cy="-340" fill="#ff00a2" r="5"/>
</g>
</g>
<g>
<g>
<line stroke="black" stroke-width="1" x1="0" x2="0" y1="0" y2="10"/>
<line stroke="black" stroke-width="1" x1="102.12765957446808" x2="102.12765957446808" y1="0" y2="10"/>
<line stroke="black" stroke-width="1" x1="204.25531914893617" x2="204.25531914893617" y1="0" y2="10"/>
<line stroke="black" stroke-width="1" x1="306.3829787234043" x2="306.3829787234043" y1="0" y2="10"/>
<line stroke="black" stroke-width="1" x1="408.51063829787233" x2="408.51063829787233" y1="0" y2="10"/>
</g>
<line stroke="black" stroke-width="1" x1="0" x2="480" y1="0" y2="0"/>
<g>
<text font-size="12" text-anchor="middle" x="0" y="20">
1
</text>
<text font-size="12" text-anchor="middle" x="102.12765957446808" y="20">
11
</text>
<text font-size="12" text-anchor="middle" x="204.25531914893617" y="20">
21
</text>
<text font-size="12" text-anchor="middle" x="306.3829787234043" y="20">
31
</text>
<text font-size="12" text-anchor="middle" x="408.51063829787233" y="20">
41
</text>
</g>
<text font-size="12" text-anchor="middle" x="240" y="30">

</text>
</g>
<g>
<g>
<line stroke="black" stroke-width="1" x1="0" x2="-10" y1="0.0000027444393167711763" y2="0.0000027444393167711763"/>
<line stroke="black" stroke-width="1" x1="0" x2="-10" y1="-80.16651437969348" y2="-80.16651437969348"/>
<line stroke="black" stroke-width="1" x1="0" x2="-10" y1="-160.3330315038263" y2="-160.3330315038263"/>
<line stroke="black" stroke-width="1" x1="0" x2="-10" y1="-240.49954862795911" y2="-240.49954862795911"/>
<line stroke="black" stroke-width="1" x1="0" x2="-10" y1="-320.6660657520919" y2="-320.6660657520919"/>
</g>
<line stroke="black" stroke-width="1" x1="0" x2="0" y1="0" y2="-340"/>
<g>
<text dominant-baseline="middle" font-size="12" text-anchor="end" x="-15" y="0.0000027444393167711763">
8.42342
</text>
<text dominant-baseline="middle" font-size="12" text-anchor="end" x="-15" y="-80.16651437969348">
108.42342
</text>
<text dominant-baseline="middle" font-size="12" text-anchor="end" x="-15" y="-160.3330315038263">
208.42342
</text>
<text dominant-baseline="middle" font-size="12" text-anchor="end" x="-15" y="-240.49954862795911">
308.42342
</text>
<text dominant-baseline="middle" font-size="12" text-anchor="end" x="-15" y="-320.6660657520919">
408.42342
</text>
</g>
<text font-size="12" text-anchor="middle" transform="rotate(-90 -108 -170)" x="-108" y="-182">

</text>
</g>
</g>
</svg>