<svg viewBox="0 0 600 400" xmlns="http://www.w3.org/2000/svg">
<g transform="translate(72, 364)">
<g>
<g>
<path d="M0,-340 L0,-340 L36.923077,-170 L73.84615,-127.5 L110.76923,-85 L147.6923,-127.5 L184.61539,-212.5 L221.53847,-212.5 L258.46155,-85 L295.3846,-127.5 L332.30768,-170 L369.23077,-255 L406.15384,-340 L443.07693,-127.5 L480,0" fill="none" stroke="#000000" stroke-linejoin="round" stroke-width="2"/>
</g>
<g>
<circle cx="0" cy="-340" fill="#000000" r="5"/>
<circle cx="36.92307692307692" cy="-170" fill="#000000" r="5"/>
<circle cx="73.84615384615384" cy="-127.5" fill="#000000" r="5"/>
<circle cx="110.76923076923077" cy="-85" fill="#000000" r="5"/>
<circle cx="147.69230769230768" cy="-127.5" fill="#000000" r="5"/>
<circle cx="184.6153846153846" cy="-212.5" fill="#000000" r="5"/>
<circle cx="221.53846153846155" cy="-212.5" fill="#000000" r="5"/>
<circle cx="258.46153846153845" cy="-85" fill="#000000" r="5"/>
<circle cx="295.38461538461536" cy="-127.5" fill="#000000" r="5"/>
<circle cx="332.3076923076923" cy="-170" fill="#000000" r="5"/>
<circle cx="369.2307692307692" cy="-255" fill="#000000" r="5"/>
<circle cx="406.15384615384613" cy="-340" fill="#000000" r="5"/>
<circle cx="443.0769230769231" cy="-127.5" fill="#000000" r="5"/>
<circle cx="480" cy="0" fill="#000000" r="5"/>
</g>
</g>
<g>
<g>
<line stroke="black" stroke-width="1" x1="0" x2="0" y1="0" y2="10"/>
<line stroke="black" stroke-width="1" x1="147.69230769230768" x2="147.69230769230768" y1="0" y2="10"/>
<line stroke="black" stroke-width="1" x1="295.38461538461536" x2="295.38461538461536" y1="0" y2="10"/>
<line stroke="black" stroke-width="1" x1="443.0769230769231" x2="443.0769230769231" y1="0" y2="10"/>
</g>
<line stroke="black" stroke-width="1" x1="0" x2="480" y1="0" y2="0"/>
<g>
<text font-size="12" text-anchor="middle" x="0" y="20">
0
</text>
<text font-size="12" text-anchor="middle" x="147.69230769230768" y="20">
4
</text>
<text font-size="12" text-anchor="middle" x="295.38461538461536" y="20">
8
</text>
<text font-size="12" text-anchor="middle" x="443.0769230769231" y="20">
12
</text>
</g>
<text font-size="12" text-anchor="middle" x="240" y="30">

</text>
</g>
<g>
<g>
<line stroke="black" stroke-width="1" x1="0" x2="-10" y1="0" y2="0"/>
<line stroke="black" stroke-width="1" x1="0" x2="-10" y1="-85" y2="-85"/>
<line stroke="black" stroke-width="1" x1="0" x2="-10" y1="-170" y2="-170"/>
<line stroke="black" stroke-width="1" x1="0" x2="-10" y1="-255" y2="-255"/>
<line stroke="black" stroke-width="1" x1="0" x2="-10" y1="-340" y2="-340"/>
</g>
<line stroke="black" stroke-width="1" x1="0" x2="0" y1="0" y2="-340"/>
<g>
<text dominant-baseline="middle" font-size="12" text-anchor="end" x="-15" y="0">
40
</text>
<text dominant-baseline="middle" font-size="12" text-anchor="end" x="-15" y="-85">
60
</text>
<text dominant-baseline="middle" font-size="12" text-anchor="end" x="-15" y="-170">
80
</text>
<text dominant-baseline="middle" font-size="12" text-anchor="end" x="-15" y="-255">
100
</text>
<text dominant-baseline="middle" font-size="12" text-anchor="end" x="-15" y="-340">
120
</text>
</g>
<text font-size="12" text-anchor="middle" transform="rotate(-90 -36 -170)" x="-36" y="-182">

</text>
</g>
</g>
</svg>