<svg viewBox="0 0 600 400" xmlns="http://www.w3.org/2000/svg">
<g transform="translate(72, 364)">
<g>
<g>
<path d="M0,-340 L0,-340 L13.714286,-170 L27.428572,-127.5 L41.142857,-85 L54.857143,-127.5 L68.57143,-212.5 L82.28571,-212.5 L96,-85 L109.71429,-127.5 L123.42857,-170 L137.14285,-255 L150.85715,-340 L164.57143,-255 L178.28572,-85 L192,-170 L205.71428,-170 L219.42857,-212.5 L233.14285,-255 L246.85715,-170 L260.57144,-212.5 L274.2857,-42.5 L288,0 L301.7143,-127.5 L315.42856,-170 L329.14285,-212.5 L342.85715,-42.5 L356.57144,-127.5 L370.2857,-170 L384,-170 L397.7143,-340 L411.42856,-255 L425.14285,-340 L438.85715,-127.5 L452.57144,-127.5 L466.2857,-212.5 L480,-340" fill="none" stroke="#000000" stroke-linejoin="round" stroke-width="2"/>
</g>
<g>
<circle cx="0" cy="-340" fill="#000000" r="5"/>
<circle cx="13.714285714285714" cy="-170" fill="#000000" r="5"/>
<circle cx="27.428571428571427" cy="-127.5" fill="#000000" r="5"/>
<circle cx="41.142857142857146" cy="-85" fill="#000000" r="5"/>
<circle cx="54.857142857142854" cy="-127.5" fill="#000000" r="5"/>
<circle cx="68.57142857142857" cy="-212.5" fill="#000000" r="5"/>
<circle cx="82.28571428571429" cy="-212.5" fill="#000000" r="5"/>
<circle cx="96" cy="-85" fill="#000000" r="5"/>
<circle cx="109.71428571428571" cy="-127.5" fill="#000000" r="5"/>
<circle cx="123.42857142857143" cy="-170" fill="#000000" r="5"/>
<circle cx="137.14285714285714" cy="-255" fill="#000000" r="5"/>
<circle cx="150.85714285714286" cy="-340" fill="#000000" r="5"/>
<circle cx="164.57142857142858" cy="-255" fill="#000000" r="5"/>
<circle cx="178.28571428571428" cy="-85" fill="#000000" r="5"/>
<circle cx="192" cy="-170" fill="#000000" r="5"/>
<circle cx="205.71428571428572" cy="-170" fill="#000000" r="5"/>
<circle cx="219.42857142857142" cy="-212.5" fill="#000000" r="5"/>
<circle cx="233.14285714285714" cy="-255" fill="#000000" r="5"/>
<circle cx="246.85714285714286" cy="-170" fill="#000000" r="5"/>
<circle cx="260.57142857142856" cy="-212.5" fill="#000000" r="5"/>
<circle cx="274.2857142857143" cy="-42.5" fill="#000000" r="5"/>
<circle cx="288" cy="0" fill="#000000" r="5"/>
<circle cx="301.7142857142857" cy="-127.5" fill="#000000" r="5"/>
<circle cx="315.42857142857144" cy="-170" fill="#000000" r="5"/>
<circle cx="329.14285714285717" cy="-212.5" fill="#000000" r="5"/>
<circle cx="342.85714285714283" cy="-42.5" fill="#000000" r="5"/>
<circle cx="356.57142857142856" cy="-127.5" fill="#000000" r="5"/>
<circle cx="370.2857142857143" cy="-170" fill="#000000" r="5"/>
<circle cx="384" cy="-170" fill="#000000" r="5"/>
<circle cx="397.7142857142857" cy="-340" fill="#000000" r="5"/>
<circle cx="411.42857142857144" cy="-255" fill="#000000" r="5"/>
<circle cx="425.14285714285717" cy="-340" fill="#000000" r="5"/>
<circle cx="438.85714285714283" cy="-127.5" fill="#000000" r="5"/>
<circle cx="452.57142857142856" cy="-127.5" fill="#000000" r="5"/>
<circle cx="466.2857142857143" cy="-212.5" fill="#000000" r="5"/>
<circle cx="480" cy="-340" fill="#000000" r="5"/>
</g>
</g>
<g>
<g>
<path d="M13.714286,-170 L13.714286,-170 L27.428572,-127.5 L41.142857,-127.5 L54.857143,-127.5 L68.57143,-212.5 L82.28571,-212.5 L96,-127.5 L109.71429,-127.5 L123.42857,-170 L137.14285,-255 L150.85715,-255 L164.57143,-255 L178.28572,-170 L192,-170 L205.71428,-170 L219.42857,-212.5 L233.14285,-212.5 L246.85715,-212.5 L260.57144,-170 L274.2857,-42.5 L288,-42.5 L301.7143,-127.5 L315.42856,-170 L329.14285,-170 L342.85715,-127.5 L356.57144,-127.5 L370.2857,-170 L384,-170 L397.7143,-255 L411.42856,-340 L425.14285,-255 L438.85715,-127.5 L452.57144,-127.5 L466.2857,-212.5" fill="none" stroke="#ff0000" stroke-linejoin="round" stroke-width="2"/>
</g>
<g>
<circle cx="13.714285714285714" cy="-170" fill="#ff0000" r="5"/>
<circle cx="27.428571428571427" cy="-127.5" fill="#ff0000" r="5"/>
<circle cx="41.142857142857146" cy="-127.5" fill="#ff0000" r="5"/>
<circle cx="54.857142857142854" cy="-127.5" fill="#ff0000" r="5"/>
<circle cx="68.57142857142857" cy="-212.5" fill="#ff0000" r="5"/>
<circle cx="82.28571428571429" cy="-212.5" fill="#ff0000" r="5"/>
<circle cx="96" cy="-127.5" fill="#ff0000" r="5"/>
<circle cx="109.71428571428571" cy="-127.5" fill="#ff0000" r="5"/>
<circle cx="123.42857142857143" cy="-170" fill="#ff0000" r="5"/>
<circle cx="137.14285714285714" cy="-255" fill="#ff0000" r="5"/>
<circle cx="150.85714285714286" cy="-255" fill="#ff0000" r="5"/>
<circle cx="164.57142857142858" cy="-255" fill="#ff0000" r="5"/>
<circle cx="178.28571428571428" cy="-170" fill="#ff0000" r="5"/>
<circle cx="192" cy="-170" fill="#ff0000" r="5"/>
<circle cx="205.71428571428572" cy="-170" fill="#ff0000" r="5"/>
<circle cx="219.42857142857142" cy="-212.5" fill="#ff0000" r="5"/>
<circle cx="233.14285714285714" cy="-212.5" fill="#ff0000" r="5"/>
<circle cx="246.85714285714286" cy="-212.5" fill="#ff0000" r="5"/>
<circle cx="260.57142857142856" cy="-170" fill="#ff0000" r="5"/>
<circle cx="274.2857142857143" cy="-42.5" fill="#ff0000" r="5"/>
<circle cx="288" cy="-42.5" fill="#ff0000" r="5"/>
<circle cx="301.7142857142857" cy="-127.5" fill="#ff0000" r="5"/>
<circle cx="315.42857142857144" cy="-170" fill="#ff0000" r="5"/>
<circle cx="329.14285714285717" cy="-170" fill="#ff0000" r="5"/>
<circle cx="342.85714285714283" cy="-127.5" fill="#ff0000" r="5"/>
<circle cx="356.57142857142856" cy="-127.5" fill="#ff0000" r="5"/>
<circle cx="370.2857142857143" cy="-170" fill="#ff0000" r="5"/>
<circle cx="384" cy="-170" fill="#ff0000" r="5"/>
<circle cx="397.7142857142857" cy="-255" fill="#ff0000" r="5"/>
<circle cx="411.42857142857144" cy="-340" fill="#ff0000" r="5"/>
<circle cx="425.14285714285717" cy="-255" fill="#ff0000" r="5"/>
<circle cx="438.85714285714283" cy="-127.5" fill="#ff0000" r="5"/>
<circle cx="452.57142857142856" cy="-127.5" fill="#ff0000" r="5"/>
<circle cx="466.2857142857143" cy="-212.5" fill="#ff0000" r="5"/>
</g>
</g>
<g>
<g>
<path d="M27.428572,-127.5 L27.428572,-127.5 L41.142857,-127.5 L54.857143,-127.5 L68.57143,-212.5 L82.28571,-212.5 L96,-127.5 L109.71429,-127.5 L123.42857,-170 L137.14285,-255 L150.85715,-255 L164.57143,-255 L178.28572,-170 L192,-170 L205.71428,-170 L219.42857,-212.5 L233.14285,-212.5 L246.85715,-212.5 L260.57144,-170 L274.2857,-42.5 L288,-42.5 L301.7143,-127.5 L315.42856,-170 L329.14285,-170 L342.85715,-127.5 L356.57144,-127.5 L370.2857,-170 L384,-170 L397.7143,-255 L411.42856,-255 L425.14285,-255 L438.85715,-127.5 L452.57144,-127.5" fill="none" stroke="#00ff00" stroke-linejoin="round" stroke-width="2"/>
</g>
<g>
<circle cx="27.428571428571427" cy="-127.5" fill="#00ff00" r="5"/>
<circle cx="41.142857142857146" cy="-127.5" fill="#00ff00" r="5"/>
<circle cx="54.857142857142854" cy="-127.5" fill="#00ff00" r="5"/>
<circle cx="68.57142857142857" cy="-212.5" fill="#00ff00" r="5"/>
<circle cx="82.28571428571429" cy="-212.5" fill="#00ff00" r="5"/>
<circle cx="96" cy="-127.5" fill="#00ff00" r="5"/>
<circle cx="109.71428571428571" cy="-127.5" fill="#00ff00" r="5"/>
<circle cx="123.42857142857143" cy="-170" fill="#00ff00" r="5"/>
<circle cx="137.14285714285714" cy="-255" fill="#00ff00" r="5"/>
<circle cx="150.85714285714286" cy="-255" fill="#00ff00" r="5"/>
<circle cx="164.57142857142858" cy="-255" fill="#00ff00" r="5"/>
<circle cx="178.28571428571428" cy="-170" fill="#00ff00" r="5"/>
<circle cx="192" cy="-170" fill="#00ff00" r="5"/>
<circle cx="205.71428571428572" cy="-170" fill="#00ff00" r="5"/>
<circle cx="219.42857142857142" cy="-212.5" fill="#00ff00" r="5"/>
<circle cx="233.14285714285714" cy="-212.5" fill="#00ff00" r="5"/>
<circle cx="246.85714285714286" cy="-212.5" fill="#00ff00" r="5"/>
<circle cx="260.57142857142856" cy="-170" fill="#00ff00" r="5"/>
<circle cx="274.2857142857143" cy="-42.5" fill="#00ff00" r="5"/>
<circle cx="288" cy="-42.5" fill="#00ff00" r="5"/>
<circle cx="301.7142857142857" cy="-127.5" fill="#00ff00" r="5"/>
<circle cx="315.42857142857144" cy="-170" fill="#00ff00" r="5"/>
<circle cx="329.14285714285717" cy="-170" fill="#00ff00" r="5"/>
<circle cx="342.85714285714283" cy="-127.5" fill="#00ff00" r="5"/>
<circle cx="356.57142857142856" cy="-127.5" fill="#00ff00" r="5"/>
<circle cx="370.2857142857143" cy="-170" fill="#00ff00" r="5"/>
<circle cx="384" cy="-170" fill="#00ff00" r="5"/>
<circle cx="397.7142857142857" cy="-255" fill="#00ff00" r="5"/>
<circle cx="411.42857142857144" cy="-255" fill="#00ff00" r="5"/>
<circle cx="425.14285714285717" cy="-255" fill="#00ff00" r="5"/>
<circle cx="438.85714285714283" cy="-127.5" fill="#00ff00" r="5"/>
<circle cx="452.57142857142856" cy="-127.5" fill="#00ff00" r="5"/>
</g>
</g>
<g>
<g>
<line stroke="black" stroke-width="1" x1="0" x2="0" y1="0" y2="10"/>
<line stroke="black" stroke-width="1" x1="137.14285714285714" x2="137.14285714285714" y1="0" y2="10"/>
<line stroke="black" stroke-width="1" x1="274.2857142857143" x2="274.2857142857143" y1="0" y2="10"/>
<line stroke="black" stroke-width="1" x1="411.42857142857144" x2="411.42857142857144" y1="0" y2="10"/>
</g>
<line stroke="black" stroke-width="1" x1="0" x2="480" y1="0" y2="0"/>
<g>
<text font-size="12" text-anchor="middle" x="0" y="20">
1
</text>
<text font-size="12" text-anchor="middle" x="137.14285714285714" y="20">
11
</text>
<text font-size="12" text-anchor="middle" x="274.2857142857143" y="20">
21
</text>
<text font-size="12" text-anchor="middle" x="411.42857142857144" y="20">
31
</text>
</g>
<text font-size="12" text-anchor="middle" x="240" y="30">

</text>
</g>
<g>
<g>
<line stroke="black" stroke-width="1" x1="0" x2="-10" y1="0" y2="0"/>
<line stroke="black" stroke-width="1" x1="0" x2="-10" y1="-85" y2="-85"/>
<line stroke="black" stroke-width="1" x1="0" x2="-10" y1="-170" y2="-170"/>
<line stroke="black" stroke-width="1" x1="0" x2="-10" y1="-255" y2="-255"/>
<line stroke="black" stroke-width="1" x1="0" x2="-10" y1="-340" y2="-340"/>
</g>
<line stroke="black" stroke-width="1" x1="0" x2="0" y1="0" y2="-340"/>
<g>
<text dominant-baseline="middle" font-size="12" text-anchor="end" x="-15" y="0">
40
</text>
<text dominant-baseline="middle" font-size="12" text-anchor="end" x="-15" y="-85">
60
</text>
<text dominant-baseline="middle" font-size="12" text-anchor="end" x="-15" y="-170">
80
</text>
<text dominant-baseline="middle" font-size="12" text-anchor="end" x="-15" y="-255">
100
</text>
<text dominant-baseline="middle" font-size="12" text-anchor="end" x="-15" y="-340">
120
</text>
</g>
<text font-size="12" text-anchor="middle" transform="rotate(-90 -36 -170)" x="-36" y="-182">

</text>
</g>
</g>
</svg>