<svg viewBox="0 0 600 400" xmlns="http://www.w3.org/2000/svg">
<g transform="translate(72, 364)">
<g>
<g>
<path d="M0,-194.28572 L0,-194.28572 L16,-145.71428 L32,-97.14286 L48,-48.57143 L64,0 L80,-48.57143 L96,-48.57143 L112,-145.71428 L128,-97.14286 L144,0 L160,-194.28572 L176,-291.42856 L192,-340 L208,-194.28572 L224,-242.85715 L240,-121.42857 L256,-145.71428 L272,-97.14286 L288,-194.28572 L304,-48.57143 L320,-97.14286 L336,-291.42856 L352,-97.14286 L368,-194.28572" fill="none" stroke="#000000" stroke-linejoin="round" stroke-width="2"/>
</g>
<g>
<circle cx="0" cy="-194.28571428571428" fill="#000000" r="5"/>
<circle cx="16" cy="-145.71428571428572" fill="#000000" r="5"/>
<circle cx="32" cy="-97.14285714285714" fill="#000000" r="5"/>
<circle cx="48" cy="-48.57142857142857" fill="#000000" r="5"/>
<circle cx="64" cy="0" fill="#000000" r="5"/>
<circle cx="80" cy="-48.57142857142857" fill="#000000" r="5"/>
<circle cx="96" cy="-48.57142857142857" fill="#000000" r="5"/>
<circle cx="112" cy="-145.71428571428572" fill="#000000" r="5"/>
<circle cx="128" cy="-97.14285714285714" fill="#000000" r="5"/>
<circle cx="144" cy="0" fill="#000000" r="5"/>
<circle cx="160" cy="-194.28571428571428" fill="#000000" r="5"/>
<circle cx="176" cy="-291.42857142857144" fill="#000000" r="5"/>
<circle cx="192" cy="-340" fill="#000000" r="5"/>
<circle cx="208" cy="-194.28571428571428" fill="#000000" r="5"/>
<circle cx="224" cy="-242.85714285714286" fill="#000000" r="5"/>
<circle cx="240" cy="-121.42857142857143" fill="#000000" r="5"/>
<circle cx="256" cy="-145.71428571428572" fill="#000000" r="5"/>
<circle cx="272" cy="-97.14285714285714" fill="#000000" r="5"/>
<circle cx="288" cy="-194.28571428571428" fill="#000000" r="5"/>
<circle cx="304" cy="-48.57142857142857" fill="#000000" r="5"/>
<circle cx="320" cy="-97.14285714285714" fill="#000000" r="5"/>
<circle cx="336" cy="-291.42857142857144" fill="#000000" r="5"/>
<circle cx="352" cy="-97.14285714285714" fill="#000000" r="5"/>
<circle cx="368" cy="-194.28571428571428" fill="#000000" r="5"/>
</g>
</g>
<g>
<g>
<path d="M16,-194.28572 L16,-194.28572 L32,-174.85715 L48,-143.77142 L64,-105.69143 L80,-63.414856 L96,-57.477486 L112,-53.915062 L128,-90.63475 L144,-93.23799 L160,-55.942795 L176,-111.27996 L192,-183.3394 L208,-246.00365 L224,-225.31647 L240,-232.33273 L256,-187.97107 L272,-171.06836 L288,-141.49815 L304,-162.61317 L320,-116.99648 L336,-109.05503 L352,-182.00444 L368,-148.05981 L384,-160.28572 L400,-189.42857 L416,-59.985714 L432,-120.99143 L448,-157.56572 L464,-92.45571 L480,-135.90286" fill="none" stroke="#ff0a9a" stroke-linejoin="round" stroke-width="2"/>
</g>
<g>
<circle cx="16" cy="-194.28571428571428" fill="#ff0a9a" r="5"/>
<circle cx="32" cy="-174.85714285714286" fill="#ff0a9a" r="5"/>
<circle cx="48" cy="-143.77142857142854" fill="#ff0a9a" r="5"/>
<circle cx="64" cy="-105.69142857142853" fill="#ff0a9a" r="5"/>
<circle cx="80" cy="-63.414857142857066" fill="#ff0a9a" r="5"/>
<circle cx="96" cy="-57.47748571428566" fill="#ff0a9a" r="5"/>
<circle cx="112" cy="-53.9150628571428" fill="#ff0a9a" r="5"/>
<circle cx="128" cy="-90.6347519999999" fill="#ff0a9a" r="5"/>
<circle cx="144" cy="-93.2379940571428" fill="#ff0a9a" r="5"/>
<circle cx="160" cy="-55.94279643428567" fill="#ff0a9a" r="5"/>
<circle cx="176" cy="-111.27996357485706" fill="#ff0a9a" r="5"/>
<circle cx="192" cy="-183.3394067163428" fill="#ff0a9a" r="5"/>
<circle cx="208" cy="-246.00364402980574" fill="#ff0a9a" r="5"/>
<circle cx="224" cy="-225.31647213216914" fill="#ff0a9a" r="5"/>
<circle cx="240" cy="-232.3327404221586" fill="#ff0a9a" r="5"/>
<circle cx="256" cy="-187.9710728247237" fill="#ff0a9a" r="5"/>
<circle cx="272" cy="-171.0683579805485" fill="#ff0a9a" r="5"/>
<circle cx="288" cy="-141.49815764547196" fill="#ff0a9a" r="5"/>
<circle cx="304" cy="-162.6131803015689" fill="#ff0a9a" r="5"/>
<circle cx="320" cy="-116.99647960951275" fill="#ff0a9a" r="5"/>
<circle cx="336" cy="-109.0550306228505" fill="#ff0a9a" r="5"/>
<circle cx="352" cy="-182.00444694513885" fill="#ff0a9a" r="5"/>
<circle cx="368" cy="-148.05981102422618" fill="#ff0a9a" r="5"/>
<circle cx="384" cy="-160.28571428571428" fill="#ff0a9a" r="5"/>
<circle cx="400" cy="-189.42857142857142" fill="#ff0a9a" r="5"/>
<circle cx="416" cy="-59.98571428571426" fill="#ff0a9a" r="5"/>
<circle cx="432" cy="-120.99142857142857" fill="#ff0a9a" r="5"/>
<circle cx="448" cy="-157.56571428571428" fill="#ff0a9a" r="5"/>
<circle cx="464" cy="-92.45571428571427" fill="#ff0a9a" r="5"/>
<circle cx="480" cy="-135.90285714285716" fill="#ff0a9a" r="5"/>
</g>
</g>
<g>
<g>
<line stroke="black" stroke-width="1" x1="0" x2="0" y1="0" y2="10"/>
<line stroke="black" stroke-width="1" x1="160" x2="160" y1="0" y2="10"/>
<line stroke="black" stroke-width="1" x1="320" x2="320" y1="0" y2="10"/>
<line stroke="black" stroke-width="1" x1="480" x2="480" y1="0" y2="10"/>
</g>
<line stroke="black" stroke-width="1" x1="0" x2="480" y1="0" y2="0"/>
<g>
<text font-size="12" text-anchor="middle" x="0" y="20">
1
</text>
<text font-size="12" text-anchor="middle" x="160" y="20">
11
</text>
<text font-size="12" text-anchor="middle" x="320" y="20">
21
</text>
<text font-size="12" text-anchor="middle" x="480" y="20">
31
</text>
</g>
<text font-size="12" text-anchor="middle" x="240" y="30">

</text>
</g>
<g>
<g>
<line stroke="black" stroke-width="1" x1="0" x2="-10" y1="0" y2="0"/>
<line stroke="black" stroke-width="1" x1="0" x2="-10" y1="-97.14285714285714" y2="-97.14285714285714"/>
<line stroke="black" stroke-width="1" x1="0" x2="-10" y1="-194.28571428571428" y2="-194.28571428571428"/>
<line stroke="black" stroke-width="1" x1="0" x2="-10" y1="-291.42857142857144" y2="-291.42857142857144"/>
</g>
<line stroke="black" stroke-width="1" x1="0" x2="0" y1="0" y2="-340"/>
<g>
<text dominant-baseline="middle" font-size="12" text-anchor="end" x="-15" y="0">
60
</text>
<text dominant-baseline="middle" font-size="12" text-anchor="end" x="-15" y="-97.14285714285714">
80
</text>
<text dominant-baseline="middle" font-size="12" text-anchor="end" x="-15" y="-194.28571428571428">
100
</text>
<text dominant-baseline="middle" font-size="12" text-anchor="end" x="-15" y="-291.42857142857144">
120
</text>
</g>
<text font-size="12" text-anchor="middle" transform="rotate(-90 -36 -170)" x="-36" y="-182">

</text>
</g>
</g>
</svg>