<svg viewBox="0 0 600 400" xmlns="http://www.w3.org/2000/svg">
<g transform="translate(72, 364)">
<g>
<g>
<path d="M0,-212.5 L0,-212.5 L11.428572,-170 L22.857143,-127.5 L34.285713,-85 L45.714287,-42.5 L57.142857,-127.5 L68.57143,-85 L80,-212.5 L91.42857,-340 L102.85714,-255 L114.28571,-297.5 L125.71429,-297.5 L137.14285,-170 L148.57143,-127.5 L160,-212.5 L171.42857,-127.5 L182.85715,-85 L194.28572,-42.5 L205.71428,0 L217.14285,-127.5 L228.57143,-170 L240,-212.5 L251.42857,-297.5 L262.85715,-255 L274.2857,-127.5 L285.7143,-170 L297.14285,-212.5 L308.57144,-255 L320,-297.5 L331.42856,-212.5 L342.85715,-297.5 L354.2857,-212.5 L365.7143,-212.5 L377.14285,-255 L388.57144,-297.5 L400,-340" fill="none" stroke="#000000" stroke-linejoin="round" stroke-width="2"/>
</g>
<g>
<circle cx="0" cy="-212.5" fill="#000000" r="5"/>
<circle cx="11.428571428571429" cy="-170" fill="#000000" r="5"/>
<circle cx="22.857142857142858" cy="-127.5" fill="#000000" r="5"/>
<circle cx="34.285714285714285" cy="-85" fill="#000000" r="5"/>
<circle cx="45.714285714285715" cy="-42.5" fill="#000000" r="5"/>
<circle cx="57.142857142857146" cy="-127.5" fill="#000000" r="5"/>
<circle cx="68.57142857142857" cy="-85" fill="#000000" r="5"/>
<circle cx="80" cy="-212.5" fill="#000000" r="5"/>
<circle cx="91.42857142857143" cy="-340" fill="#000000" r="5"/>
<circle cx="102.85714285714286" cy="-255" fill="#000000" r="5"/>
<circle cx="114.28571428571429" cy="-297.5" fill="#000000" r="5"/>
<circle cx="125.71428571428571" cy="-297.5" fill="#000000" r="5"/>
<circle cx="137.14285714285714" cy="-170" fill="#000000" r="5"/>
<circle cx="148.57142857142858" cy="-127.5" fill="#000000" r="5"/>
<circle cx="160" cy="-212.5" fill="#000000" r="5"/>
<circle cx="171.42857142857142" cy="-127.5" fill="#000000" r="5"/>
<circle cx="182.85714285714286" cy="-85" fill="#000000" r="5"/>
<circle cx="194.28571428571428" cy="-42.5" fill="#000000" r="5"/>
<circle cx="205.71428571428572" cy="0" fill="#000000" r="5"/>
<circle cx="217.14285714285714" cy="-127.5" fill="#000000" r="5"/>
<circle cx="228.57142857142858" cy="-170" fill="#000000" r="5"/>
<circle cx="240" cy="-212.5" fill="#000000" r="5"/>
<circle cx="251.42857142857142" cy="-297.5" fill="#000000" r="5"/>
<circle cx="262.85714285714283" cy="-255" fill="#000000" r="5"/>
<circle cx="274.2857142857143" cy="-127.5" fill="#000000" r="5"/>
<circle cx="285.7142857142857" cy="-170" fill="#000000" r="5"/>
<circle cx="297.14285714285717" cy="-212.5" fill="#000000" r="5"/>
<circle cx="308.57142857142856" cy="-255" fill="#000000" r="5"/>
<circle cx="320" cy="-297.5" fill="#000000" r="5"/>
<circle cx="331.42857142857144" cy="-212.5" fill="#000000" r="5"/>
<circle cx="342.85714285714283" cy="-297.5" fill="#000000" r="5"/>
<circle cx="354.2857142857143" cy="-212.5" fill="#000000" r="5"/>
<circle cx="365.7142857142857" cy="-212.5" fill="#000000" r="5"/>
<circle cx="377.14285714285717" cy="-255" fill="#000000" r="5"/>
<circle cx="388.57142857142856" cy="-297.5" fill="#000000" r="5"/>
<circle cx="400" cy="-340" fill="#000000" r="5"/>
</g>
</g>
<g>
<g>
<path d="M11.428572,-212.5 L11.428572,-212.5 L22.857143,-195.5 L34.285713,-168.3 L45.714287,-134.98 L57.142857,-97.988 L68.57143,-109.7928 L80,-99.87568 L91.42857,-144.92542 L102.85714,-222.95525 L114.28571,-235.77315 L125.71429,-260.4639 L137.14285,-275.27832 L148.57143,-233.16699 L160,-190.90019 L171.42857,-199.54012 L182.85715,-170.72408 L194.28572,-136.43445 L205.71428,-98.860664 L217.14285,-59.3164 L228.57143,-86.589836 L240,-119.9539 L251.42857,-156.97234 L262.85715,-213.18341 L274.2857,-229.91005 L285.7143,-188.94603 L297.14285,-181.36761 L308.57144,-193.82057 L320,-218.29234 L331.42856,-249.9754 L342.85715,-234.98524 L354.2857,-259.99115 L365.7143,-240.99469 L377.14285,-229.59682 L388.57144,-239.75809 L400,-262.85486 L411.42856,-182.75 L422.85715,-208.25 L434.2857,-94.9875 L445.7143,-148.3675 L457.14285,-180.37 L468.57144,-123.39875 L480,-161.415" fill="none" stroke="#ff0a9a" stroke-linejoin="round" stroke-width="2"/>
</g>
<g>
<circle cx="11.428571428571429" cy="-212.5" fill="#ff0a9a" r="5"/>
<circle cx="22.857142857142858" cy="-195.5" fill="#ff0a9a" r="5"/>
<circle cx="34.285714285714285" cy="-168.29999999999998" fill="#ff0a9a" r="5"/>
<circle cx="45.714285714285715" cy="-134.97999999999996" fill="#ff0a9a" r="5"/>
<circle cx="57.142857142857146" cy="-97.98799999999993" fill="#ff0a9a" r="5"/>
<circle cx="68.57142857142857" cy="-109.79279999999997" fill="#ff0a9a" r="5"/>
<circle cx="80" cy="-99.87567999999997" fill="#ff0a9a" r="5"/>
<circle cx="91.42857142857143" cy="-144.92540799999998" fill="#ff0a9a" r="5"/>
<circle cx="102.85714285714286" cy="-222.9552448" fill="#ff0a9a" r="5"/>
<circle cx="114.28571428571429" cy="-235.77314687999996" fill="#ff0a9a" r="5"/>
<circle cx="125.71428571428571" cy="-260.463888128" fill="#ff0a9a" r="5"/>
<circle cx="137.14285714285714" cy="-275.27833287679994" fill="#ff0a9a" r="5"/>
<circle cx="148.57142857142858" cy="-233.16699972607995" fill="#ff0a9a" r="5"/>
<circle cx="160" cy="-190.90019983564792" fill="#ff0a9a" r="5"/>
<circle cx="171.42857142857142" cy="-199.54011990138875" fill="#ff0a9a" r="5"/>
<circle cx="182.85714285714286" cy="-170.72407194083323" fill="#ff0a9a" r="5"/>
<circle cx="194.28571428571428" cy="-136.4344431644999" fill="#ff0a9a" r="5"/>
<circle cx="205.71428571428572" cy="-98.86066589869992" fill="#ff0a9a" r="5"/>
<circle cx="217.14285714285714" cy="-59.316399539219944" fill="#ff0a9a" r="5"/>
<circle cx="228.57142857142858" cy="-86.58983972353197" fill="#ff0a9a" r="5"/>
<circle cx="240" cy="-119.95390383411916" fill="#ff0a9a" r="5"/>
<circle cx="251.42857142857142" cy="-156.97234230047152" fill="#ff0a9a" r="5"/>
<circle cx="262.85714285714283" cy="-213.18340538028292" fill="#ff0a9a" r="5"/>
<circle cx="274.2857142857143" cy="-229.9100432281697" fill="#ff0a9a" r="5"/>
<circle cx="285.7142857142857" cy="-188.94602593690178" fill="#ff0a9a" r="5"/>
<circle cx="297.14285714285717" cy="-181.36761556214105" fill="#ff0a9a" r="5"/>
<circle cx="308.57142857142856" cy="-193.82056933728464" fill="#ff0a9a" r="5"/>
<circle cx="320" cy="-218.29234160237078" fill="#ff0a9a" r="5"/>
<circle cx="331.42857142857144" cy="-249.9754049614224" fill="#ff0a9a" r="5"/>
<circle cx="342.85714285714283" cy="-234.98524297685344" fill="#ff0a9a" r="5"/>
<circle cx="354.2857142857143" cy="-259.99114578611204" fill="#ff0a9a" r="5"/>
<circle cx="365.7142857142857" cy="-240.9946874716672" fill="#ff0a9a" r="5"/>
<circle cx="377.14285714285717" cy="-229.5968124830003" fill="#ff0a9a" r="5"/>
<circle cx="388.57142857142856" cy="-239.75808748980018" fill="#ff0a9a" r="5"/>
<circle cx="400" cy="-262.85485249388006" fill="#ff0a9a" r="5"/>
<circle cx="411.42857142857144" cy="-182.75" fill="#ff0a9a" r="5"/>
<circle cx="422.85714285714283" cy="-208.25" fill="#ff0a9a" r="5"/>
<circle cx="434.2857142857143" cy="-94.98749999999998" fill="#ff0a9a" r="5"/>
<circle cx="445.7142857142857" cy="-148.3675" fill="#ff0a9a" r="5"/>
<circle cx="457.14285714285717" cy="-180.36999999999998" fill="#ff0a9a" r="5"/>
<circle cx="468.57142857142856" cy="-123.39874999999999" fill="#ff0a9a" r="5"/>
<circle cx="480" cy="-161.41500000000002" fill="#ff0a9a" r="5"/>
</g>
</g>
<g>
<g>
<line stroke="black" stroke-width="1" x1="0" x2="0" y1="0" y2="10"/>
<line stroke="black" stroke-width="1" x1="114.28571428571429" x2="114.28571428571429" y1="0" y2="10"/>
<line stroke="black" stroke-width="1" x1="228.57142857142858" x2="228.57142857142858" y1="0" y2="10"/>
<line stroke="black" stroke-width="1" x1="342.85714285714283" x2="342.85714285714283" y1="0" y2="10"/>
<line stroke="black" stroke-width="1" x1="457.14285714285717" x2="457.14285714285717" y1="0" y2="10"/>
</g>
<line stroke="black" stroke-width="1" x1="0" x2="480" y1="0" y2="0"/>
<g>
<text font-size="12" text-anchor="middle" x="0" y="20">
1
</text>
<text font-size="12" text-anchor="middle" x="114.28571428571429" y="20">
11
</text>
<text font-size="12" text-anchor="middle" x="228.57142857142858" y="20">
21
</text>
<text font-size="12" text-anchor="middle" x="342.85714285714283" y="20">
31
</text>
<text font-size="12" text-anchor="middle" x="457.14285714285717" y="20">
41
</text>
</g>
<text font-size="12" text-anchor="middle" x="240" y="30">

</text>
</g>
<g>
<g>
<line stroke="black" stroke-width="1" x1="0" x2="-10" y1="0" y2="0"/>
<line stroke="black" stroke-width="1" x1="0" x2="-10" y1="-85" y2="-85"/>
<line stroke="black" stroke-width="1" x1="0" x2="-10" y1="-170" y2="-170"/>
<line stroke="black" stroke-width="1" x1="0" x2="-10" y1="-255" y2="-255"/>
<line stroke="black" stroke-width="1" x1="0" x2="-10" y1="-340" y2="-340"/>
</g>
<line stroke="black" stroke-width="1" x1="0" x2="0" y1="0" y2="-340"/>
<g>
<text dominant-baseline="middle" font-size="12" text-anchor="end" x="-15" y="0">
50
</text>
<text dominant-baseline="middle" font-size="12" text-anchor="end" x="-15" y="-85">
70
</text>
<text dominant-baseline="middle" font-size="12" text-anchor="end" x="-15" y="-170">
90
</text>
<text dominant-baseline="middle" font-size="12" text-anchor="end" x="-15" y="-255">
110
</text>
<text dominant-baseline="middle" font-size="12" text-anchor="end" x="-15" y="-340">
130
</text>
</g>
<text font-size="12" text-anchor="middle" transform="rotate(-90 -36 -170)" x="-36" y="-182">

</text>
</g>
</g>
</svg>