<svg viewBox="0 0 600 400" xmlns="http://www.w3.org/2000/svg">
<g transform="translate(72, 364)">
<g>
<g>
<path d="M0,0 L0,0 L34.285713,-7.0833335 L68.57143,-21.25 L102.85714,-60.208332 L137.14285,-31.875 L171.42857,-49.583332 L205.71428,-67.291664 L240,-70.833336 L274.2857,-170 L308.57144,-134.58333 L342.85715,-187.70833 L377.14285,-255 L411.42856,-201.875 L445.7143,-255 L480,-340" fill="none" stroke="#000000" stroke-linejoin="round" stroke-width="2"/>
</g>
<g>
<circle cx="0" cy="0" fill="#000000" r="5"/>
<circle cx="34.285714285714285" cy="-7.083333333333333" fill="#000000" r="5"/>
<circle cx="68.57142857142857" cy="-21.25" fill="#000000" r="5"/>
<circle cx="102.85714285714286" cy="-60.208333333333336" fill="#000000" r="5"/>
<circle cx="137.14285714285714" cy="-31.875" fill="#000000" r="5"/>
<circle cx="171.42857142857142" cy="-49.583333333333336" fill="#000000" r="5"/>
<circle cx="205.71428571428572" cy="-67.29166666666667" fill="#000000" r="5"/>
<circle cx="240" cy="-70.83333333333333" fill="#000000" r="5"/>
<circle cx="274.2857142857143" cy="-170" fill="#000000" r="5"/>
<circle cx="308.57142857142856" cy="-134.58333333333334" fill="#000000" r="5"/>
<circle cx="342.85714285714283" cy="-187.70833333333334" fill="#000000" r="5"/>
<circle cx="377.14285714285717" cy="-255" fill="#000000" r="5"/>
<circle cx="411.42857142857144" cy="-201.875" fill="#000000" r="5"/>
<circle cx="445.7142857142857" cy="-255" fill="#000000" r="5"/>
<circle cx="480" cy="-340" fill="#000000" r="5"/>
</g>
</g>
<g>
<g>
<path d="M34.285713,0 L34.285713,0 L68.57143,-2.8333333 L102.85714,-10.2 L137.14285,-30.203333 L171.42857,-30.872 L205.71428,-38.356533 L240,-49.930588 L274.2857,-58.291687 L308.57144,-102.97501 L342.85715,-115.61834 L377.14285,-144.45433 L411.42856,-188.6726 L445.7143,-193.95357 L480,-218.37213" fill="none" stroke="#ff0a9a" stroke-linejoin="round" stroke-width="2"/>
</g>
<g>
<circle cx="34.285714285714285" cy="0" fill="#ff0a9a" r="5"/>
<circle cx="68.57142857142857" cy="-2.8333333333333326" fill="#ff0a9a" r="5"/>
<circle cx="102.85714285714286" cy="-10.2" fill="#ff0a9a" r="5"/>
<circle cx="137.14285714285714" cy="-30.203333333333333" fill="#ff0a9a" r="5"/>
<circle cx="171.42857142857142" cy="-30.872000000000003" fill="#ff0a9a" r="5"/>
<circle cx="205.71428571428572" cy="-38.35653333333334" fill="#ff0a9a" r="5"/>
<circle cx="240" cy="-49.93058666666667" fill="#ff0a9a" r="5"/>
<circle cx="274.2857142857143" cy="-58.29168533333334" fill="#ff0a9a" r="5"/>
<circle cx="308.57142857142856" cy="-102.9750112" fill="#ff0a9a" r="5"/>
<circle cx="342.85714285714283" cy="-115.61834005333334" fill="#ff0a9a" r="5"/>
<circle cx="377.14285714285717" cy="-144.45433736533337" fill="#ff0a9a" r="5"/>
<circle cx="411.42857142857144" cy="-188.6726024192" fill="#ff0a9a" r="5"/>
<circle cx="445.7142857142857" cy="-193.95356145152002" fill="#ff0a9a" r="5"/>
<circle cx="480" cy="-218.37213687091204" fill="#ff0a9a" r="5"/>
</g>
</g>
<g>
<g>
<path d="M34.285713,-0.000000000000001572816 L34.285713,-0.000000000000001572816 L68.57143,-1.4166666 L102.85714,-5.383333 L137.14285,-16.348333 L171.42857,-19.453667 L205.71428,-25.4796 L240,-33.842014 L274.2857,-41.240276 L308.57144,-66.992226 L342.85715,-80.510445 L377.14285,-101.95002 L411.42856,-132.56001 L445.7143,-146.42302 L480,-168.13841" fill="none" stroke="#00f10a" stroke-linejoin="round" stroke-width="2"/>
</g>
<g>
<circle cx="34.285714285714285" cy="-0.000000000000001572815951552305" fill="#00f10a" r="5"/>
<circle cx="68.57142857142857" cy="-1.4166666666666679" fill="#00f10a" r="5"/>
<circle cx="102.85714285714286" cy="-5.3833333333333355" fill="#00f10a" r="5"/>
<circle cx="137.14285714285714" cy="-16.348333333333336" fill="#00f10a" r="5"/>
<circle cx="171.42857142857142" cy="-19.45366666666667" fill="#00f10a" r="5"/>
<circle cx="205.71428571428572" cy="-25.4796" fill="#00f10a" r="5"/>
<circle cx="240" cy="-33.842013333333334" fill="#00f10a" r="5"/>
<circle cx="274.2857142857143" cy="-41.240277333333346" fill="#00f10a" r="5"/>
<circle cx="308.57142857142856" cy="-66.99222186666668" fill="#00f10a" r="5"/>
<circle cx="342.85714285714283" cy="-80.51044416000003" fill="#00f10a" r="5"/>
<circle cx="377.14285714285717" cy="-101.95002199466671" fill="#00f10a" r="5"/>
<circle cx="411.42857142857144" cy="-132.56001759573337" fill="#00f10a" r="5"/>
<circle cx="445.7142857142857" cy="-146.4230140765867" fill="#00f10a" r="5"/>
<circle cx="480" cy="-168.13841126126937" fill="#00f10a" r="5"/>
</g>
</g>
<g>
<g>
<path d="M34.285713,0 L34.285713,0 L68.57143,-5.6666665 L102.85714,-18.133333 L137.14285,-51.793335 L171.42857,-35.858665 L205.71428,-46.8384 L240,-63.20101 L274.2857,-69.30687 L308.57144,-149.86137 L342.85715,-137.63895 L377.14285,-177.69446 L411.42856,-239.5389 L445.7143,-209.40778 L480,-245.88156" fill="none" stroke="#aff550" stroke-linejoin="round" stroke-width="2"/>
</g>
<g>
<circle cx="34.285714285714285" cy="0" fill="#aff550" r="5"/>
<circle cx="68.57142857142857" cy="-5.666666666666665" fill="#aff550" r="5"/>
<circle cx="102.85714285714286" cy="-18.13333333333333" fill="#aff550" r="5"/>
<circle cx="137.14285714285714" cy="-51.79333333333333" fill="#aff550" r="5"/>
<circle cx="171.42857142857142" cy="-35.85866666666667" fill="#aff550" r="5"/>
<circle cx="205.71428571428572" cy="-46.8384" fill="#aff550" r="5"/>
<circle cx="240" cy="-63.20101333333334" fill="#aff550" r="5"/>
<circle cx="274.2857142857143" cy="-69.30686933333334" fill="#aff550" r="5"/>
<circle cx="308.57142857142856" cy="-149.86137386666667" fill="#aff550" r="5"/>
<circle cx="342.85714285714283" cy="-137.63894144000002" fill="#aff550" r="5"/>
<circle cx="377.14285714285717" cy="-177.69445495466667" fill="#aff550" r="5"/>
<circle cx="411.42857142857144" cy="-239.5388909909333" fill="#aff550" r="5"/>
<circle cx="445.7142857142857" cy="-209.40777819818666" fill="#aff550" r="5"/>
<circle cx="480" cy="-245.8815556396373" fill="#aff550" r="5"/>
</g>
</g>
<g>
<g>
<line stroke="black" stroke-width="1" x1="0" x2="0" y1="0" y2="10"/>
<line stroke="black" stroke-width="1" x1="137.14285714285714" x2="137.14285714285714" y1="0" y2="10"/>
<line stroke="black" stroke-width="1" x1="274.2857142857143" x2="274.2857142857143" y1="0" y2="10"/>
<line stroke="black" stroke-width="1" x1="411.42857142857144" x2="411.42857142857144" y1="0" y2="10"/>
</g>
<line stroke="black" stroke-width="1" x1="0" x2="480" y1="0" y2="0"/>
<g>
<text font-size="12" text-anchor="middle" x="0" y="20">
1
</text>
<text font-size="12" text-anchor="middle" x="137.14285714285714" y="20">
5
</text>
<text font-size="12" text-anchor="middle" x="274.2857142857143" y="20">
9
</text>
<text font-size="12" text-anchor="middle" x="411.42857142857144" y="20">
13
</text>
</g>
<text font-size="12" text-anchor="middle" x="240" y="30">

</text>
</g>
<g>
<g>
<line stroke="black" stroke-width="1" x1="0" x2="-10" y1="0" y2="0"/>
<line stroke="black" stroke-width="1" x1="0" x2="-10" y1="-70.83333333333333" y2="-70.83333333333333"/>
<line stroke="black" stroke-width="1" x1="0" x2="-10" y1="-141.66666666666666" y2="-141.66666666666666"/>
<line stroke="black" stroke-width="1" x1="0" x2="-10" y1="-212.5" y2="-212.5"/>
<line stroke="black" stroke-width="1" x1="0" x2="-10" y1="-283.3333333333333" y2="-283.3333333333333"/>
</g>
<line stroke="black" stroke-width="1" x1="0" x2="0" y1="0" y2="-340"/>
<g>
<text dominant-baseline="middle" font-size="12" text-anchor="end" x="-15" y="0">
3
</text>
<text dominant-baseline="middle" font-size="12" text-anchor="end" x="-15" y="-70.83333333333333">
23
</text>
<text dominant-baseline="middle" font-size="12" text-anchor="end" x="-15" y="-141.66666666666666">
43
</text>
<text dominant-baseline="middle" font-size="12" text-anchor="end" x="-15" y="-212.5">
63
</text>
<text dominant-baseline="middle" font-size="12" text-anchor="end" x="-15" y="-283.3333333333333">
83
</text>
</g>
<text font-size="12" text-anchor="middle" transform="rotate(-90 -24 -170)" x="-24" y="-182">

</text>
</g>
</g>
</svg>