<svg viewBox="0 0 600 400" xmlns="http://www.w3.org/2000/svg">
<g transform="translate(72, 364)">
<g>
<g>
<path d="M0,0 L0,0 L11.428572,-9.714286 L22.857143,-19.428572 L34.285713,-29.142857 L45.714287,-38.857143 L57.142857,-48.57143 L68.57143,-58.285713 L80,-68 L91.42857,-77.71429 L102.85714,-87.42857 L114.28571,-97.14286 L125.71429,-106.85714 L137.14285,-87.42857 L148.57143,-126.28571 L160,-136 L171.42857,-145.71428 L182.85715,-155.42857 L194.28572,-165.14285 L205.71428,-174.85715 L217.14285,-184.57143 L228.57143,-194.28572 L240,-204 L251.42857,-213.71428 L262.85715,-223.42857 L274.2857,-233.14285 L285.7143,-242.85715 L297.14285,-252.57143 L308.57144,-262.2857 L320,-272 L331.42856,-281.7143 L342.85715,-291.42856 L354.2857,-301.14285 L365.7143,-310.85715 L377.14285,-320.57144 L388.57144,-330.2857 L400,-340" fill="none" stroke="#000000" stroke-linejoin="round" stroke-width="2"/>
</g>
<g>
<circle cx="0" cy="0" fill="#000000" r="5"/>
<circle cx="11.428571428571429" cy="-9.714285714285714" fill="#000000" r="5"/>
<circle cx="22.857142857142858" cy="-19.428571428571427" fill="#000000" r="5"/>
<circle cx="34.285714285714285" cy="-29.142857142857142" fill="#000000" r="5"/>
<circle cx="45.714285714285715" cy="-38.857142857142854" fill="#000000" r="5"/>
<circle cx="57.142857142857146" cy="-48.57142857142857" fill="#000000" r="5"/>
<circle cx="68.57142857142857" cy="-58.285714285714285" fill="#000000" r="5"/>
<circle cx="80" cy="-68" fill="#000000" r="5"/>
<circle cx="91.42857142857143" cy="-77.71428571428571" fill="#000000" r="5"/>
<circle cx="102.85714285714286" cy="-87.42857142857143" fill="#000000" r="5"/>
<circle cx="114.28571428571429" cy="-97.14285714285714" fill="#000000" r="5"/>
<circle cx="125.71428571428571" cy="-106.85714285714286" fill="#000000" r="5"/>
<circle cx="137.14285714285714" cy="-87.42857142857143" fill="#000000" r="5"/>
<circle cx="148.57142857142858" cy="-126.28571428571429" fill="#000000" r="5"/>
<circle cx="160" cy="-136" fill="#000000" r="5"/>
<circle cx="171.42857142857142" cy="-145.71428571428572" fill="#000000" r="5"/>
<circle cx="182.85714285714286" cy="-155.42857142857142" fill="#000000" r="5"/>
<circle cx="194.28571428571428" cy="-165.14285714285714" fill="#000000" r="5"/>
<circle cx="205.71428571428572" cy="-174.85714285714286" fill="#000000" r="5"/>
<circle cx="217.14285714285714" cy="-184.57142857142858" fill="#000000" r="5"/>
<circle cx="228.57142857142858" cy="-194.28571428571428" fill="#000000" r="5"/>
<circle cx="240" cy="-204" fill="#000000" r="5"/>
<circle cx="251.42857142857142" cy="-213.71428571428572" fill="#000000" r="5"/>
<circle cx="262.85714285714283" cy="-223.42857142857142" fill="#000000" r="5"/>
<circle cx="274.2857142857143" cy="-233.14285714285714" fill="#000000" r="5"/>
<circle cx="285.7142857142857" cy="-242.85714285714286" fill="#000000" r="5"/>
<circle cx="297.14285714285717" cy="-252.57142857142858" fill="#000000" r="5"/>
<circle cx="308.57142857142856" cy="-262.2857142857143" fill="#000000" r="5"/>
<circle cx="320" cy="-272" fill="#000000" r="5"/>
<circle cx="331.42857142857144" cy="-281.7142857142857" fill="#000000" r="5"/>
<circle cx="342.85714285714283" cy="-291.42857142857144" fill="#000000" r="5"/>
<circle cx="354.2857142857143" cy="-301.14285714285717" fill="#000000" r="5"/>
<circle cx="365.7142857142857" cy="-310.85714285714283" fill="#000000" r="5"/>
<circle cx="377.14285714285717" cy="-320.57142857142856" fill="#000000" r="5"/>
<circle cx="388.57142857142856" cy="-330.2857142857143" fill="#000000" r="5"/>
<circle cx="400" cy="-340" fill="#000000" r="5"/>
</g>
</g>
<g>
<g>
<path d="M11.428572,0 L11.428572,0 L22.857143,-3.8857143 L34.285713,-10.102858 L45.714287,-17.718857 L57.142857,-26.174171 L68.57143,-35.133076 L80,-44.39413 L91.42857,-53.83648 L102.85714,-63.3876 L114.28571,-73.00399 L125.71429,-82.65954 L137.14285,-92.33858 L148.57143,-90.37457 L160,-104.73903 L171.42857,-117.243416 L182.85715,-128.63176 L194.28572,-139.3505 L205.71428,-149.66743 L217.14285,-159.74332 L228.57143,-169.67456 L240,-179.51903 L251.42857,-189.31142 L262.85715,-199.07256 L274.2857,-208.81497 L285.7143,-218.54613 L297.14285,-228.27052 L308.57144,-237.99089 L320,-247.70882 L331.42856,-257.4253 L342.85715,-267.1409 L354.2857,-276.85596 L365.7143,-286.5707 L377.14285,-296.28528 L388.57144,-305.99976 L400,-315.71414 L411.42856,-80.62857 L422.85715,-86.457146 L434.2857,-60.568573 L445.7143,-72.769714 L457.14285,-80.08457 L468.57144,-67.06257 L480,-75.752" fill="none" stroke="#ff0a9a" stroke-linejoin="round" stroke-width="2"/>
</g>
<g>
<circle cx="11.428571428571429" cy="0" fill="#ff0a9a" r="5"/>
<circle cx="22.857142857142858" cy="-3.8857142857142857" fill="#ff0a9a" r="5"/>
<circle cx="34.285714285714285" cy="-10.102857142857141" fill="#ff0a9a" r="5"/>
<circle cx="45.714285714285715" cy="-17.718857142857143" fill="#ff0a9a" r="5"/>
<circle cx="57.142857142857146" cy="-26.17417142857143" fill="#ff0a9a" r="5"/>
<circle cx="68.57142857142857" cy="-35.13307428571429" fill="#ff0a9a" r="5"/>
<circle cx="80" cy="-44.39413028571428" fill="#ff0a9a" r="5"/>
<circle cx="91.42857142857143" cy="-53.836478171428574" fill="#ff0a9a" r="5"/>
<circle cx="102.85714285714286" cy="-63.387601188571416" fill="#ff0a9a" r="5"/>
<circle cx="114.28571428571429" cy="-73.00398928457142" fill="#ff0a9a" r="5"/>
<circle cx="125.71428571428571" cy="-82.65953642788571" fill="#ff0a9a" r="5"/>
<circle cx="137.14285714285714" cy="-92.33857899958856" fill="#ff0a9a" r="5"/>
<circle cx="148.57142857142858" cy="-90.3745759711817" fill="#ff0a9a" r="5"/>
<circle cx="160" cy="-104.73903129699474" fill="#ff0a9a" r="5"/>
<circle cx="171.42857142857142" cy="-117.24341877819684" fill="#ff0a9a" r="5"/>
<circle cx="182.85714285714286" cy="-128.6317655526324" fill="#ff0a9a" r="5"/>
<circle cx="194.28571428571428" cy="-139.350487903008" fill="#ff0a9a" r="5"/>
<circle cx="205.71428571428572" cy="-149.66743559894766" fill="#ff0a9a" r="5"/>
<circle cx="217.14285714285714" cy="-159.74331850222572" fill="#ff0a9a" r="5"/>
<circle cx="228.57142857142858" cy="-169.67456252990686" fill="#ff0a9a" r="5"/>
<circle cx="240" cy="-179.5190232322298" fill="#ff0a9a" r="5"/>
<circle cx="251.42857142857142" cy="-189.31141393933785" fill="#ff0a9a" r="5"/>
<circle cx="262.85714285714283" cy="-199.072562649317" fill="#ff0a9a" r="5"/>
<circle cx="274.2857142857143" cy="-208.81496616101873" fill="#ff0a9a" r="5"/>
<circle cx="285.7142857142857" cy="-218.54612255375412" fill="#ff0a9a" r="5"/>
<circle cx="297.14285714285717" cy="-228.2705306751096" fill="#ff0a9a" r="5"/>
<circle cx="308.57142857142856" cy="-237.99088983363717" fill="#ff0a9a" r="5"/>
<circle cx="320" cy="-247.708819614468" fill="#ff0a9a" r="5"/>
<circle cx="331.42857142857144" cy="-257.4252917686808" fill="#ff0a9a" r="5"/>
<circle cx="342.85714285714283" cy="-267.14088934692273" fill="#ff0a9a" r="5"/>
<circle cx="354.2857142857143" cy="-276.8559621795822" fill="#ff0a9a" r="5"/>
<circle cx="365.7142857142857" cy="-286.5707201648922" fill="#ff0a9a" r="5"/>
<circle cx="377.14285714285717" cy="-296.28528924179244" fill="#ff0a9a" r="5"/>
<circle cx="388.57142857142856" cy="-305.99974497364684" fill="#ff0a9a" r="5"/>
<circle cx="400" cy="-315.7141326984738" fill="#ff0a9a" r="5"/>
<circle cx="411.42857142857144" cy="-80.62857142857143" fill="#ff0a9a" r="5"/>
<circle cx="422.85714285714283" cy="-86.45714285714286" fill="#ff0a9a" r="5"/>
<circle cx="434.2857142857143" cy="-60.56857142857142" fill="#ff0a9a" r="5"/>
<circle cx="445.7142857142857" cy="-72.76971428571429" fill="#ff0a9a" r="5"/>
<circle cx="457.14285714285717" cy="-80.08457142857142" fill="#ff0a9a" r="5"/>
<circle cx="468.57142857142856" cy="-67.06257142857142" fill="#ff0a9a" r="5"/>
<circle cx="480" cy="-75.752" fill="#ff0a9a" r="5"/>
</g>
</g>
<g>
<g>
<line stroke="black" stroke-width="1" x1="0" x2="0" y1="0" y2="10"/>
<line stroke="black" stroke-width="1" x1="114.28571428571429" x2="114.28571428571429" y1="0" y2="10"/>
<line stroke="black" stroke-width="1" x1="228.57142857142858" x2="228.57142857142858" y1="0" y2="10"/>
<line stroke="black" stroke-width="1" x1="342.85714285714283" x2="342.85714285714283" y1="0" y2="10"/>
<line stroke="black" stroke-width="1" x1="457.14285714285717" x2="457.14285714285717" y1="0" y2="10"/>
</g>
<line stroke="black" stroke-width="1" x1="0" x2="480" y1="0" y2="0"/>
<g>
<text font-size="12" text-anchor="middle" x="0" y="20">
1
</text>
<text font-size="12" text-anchor="middle" x="114.28571428571429" y="20">
11
</text>
<text font-size="12" text-anchor="middle" x="228.57142857142858" y="20">
21
</text>
<text font-size="12" text-anchor="middle" x="342.85714285714283" y="20">
31
</text>
<text font-size="12" text-anchor="middle" x="457.14285714285717" y="20">
41
</text>
</g>
<text font-size="12" text-anchor="middle" x="240" y="30">

</text>
</g>
<g>
<g>
<line stroke="black" stroke-width="1" x1="0" x2="-10" y1="0" y2="0"/>
<line stroke="black" stroke-width="1" x1="0" x2="-10" y1="-97.14285714285714" y2="-97.14285714285714"/>
<line stroke="black" stroke-width="1" x1="0" x2="-10" y1="-194.28571428571428" y2="-194.28571428571428"/>
<line stroke="black" stroke-width="1" x1="0" x2="-10" y1="-291.42857142857144" y2="-291.42857142857144"/>
</g>
<line stroke="black" stroke-width="1" x1="0" x2="0" y1="0" y2="-340"/>
<g>
<text dominant-baseline="middle" font-size="12" text-anchor="end" x="-15" y="0">
10
</text>
<text dominant-baseline="middle" font-size="12" text-anchor="end" x="-15" y="-97.14285714285714">
110
</text>
<text dominant-baseline="middle" font-size="12" text-anchor="end" x="-15" y="-194.28571428571428">
210
</text>
<text dominant-baseline="middle" font-size="12" text-anchor="end" x="-15" y="-291.42857142857144">
310
</text>
</g>
<text font-size="12" text-anchor="middle" transform="rotate(-90 -36 -170)" x="-36" y="-182">

</text>
</g>
</g>
</svg>